<?xml version="1.0" standalone="no"?>
<!DOCTYPE svg PUBLIC "-//W3C//DTD SVG 20010904//EN"
 "http://www.w3.org/TR/2001/REC-SVG-20010904/DTD/svg10.dtd">
<svg version="1.0" xmlns="http://www.w3.org/2000/svg"
 width="1280.000000pt" height="1280.000000pt" viewBox="0 0 1280.000000 1280.000000"
 preserveAspectRatio="xMidYMid meet">
<metadata>
Created by potrace 1.15, written by Peter Selinger 2001-2017
</metadata>
<g transform="translate(0.000000,1280.000000) scale(0.100000,-0.100000)"
fill="#000000" stroke="none">
<path d="M0 6400 l0 -6400 6400 0 6400 0 0 6400 0 6400 -6400 0 -6400 0 0
-6400z m1834 6078 l235 -313 -712 -3 -712 -2 -307 307 c-170 170 -308 311
-308 315 0 5 353 8 785 8 l785 0 234 -312z m1521 2 c85 -170 155 -312 155
-315 0 -3 -319 -5 -709 -5 l-710 0 -228 303 c-126 166 -232 308 -237 315 -6 9
154 12 783 12 l791 0 155 -310z m1439 302 c6 -11 156 -596 156 -611 0 -8 -186
-11 -710 -11 l-710 0 -155 310 c-85 170 -155 312 -155 315 0 9 1569 6 1574 -3z
m1598 -303 c2 -171 1 -313 -1 -315 -2 -2 -323 -4 -712 -4 l-707 0 -11 33 c-5
17 -40 151 -76 297 -36 146 -68 273 -71 283 -5 16 37 17 785 17 l790 0 3 -311z
m1596 299 c-3 -7 -38 -149 -78 -315 l-74 -303 -713 0 -713 0 0 315 0 315 791
0 c629 0 790 -3 787 -12z m1592 5 c1 -5 -68 -146 -152 -315 l-152 -308 -713 0
-713 0 5 23 c45 187 147 591 151 598 6 11 1574 12 1574 2z m1593 -6 c-4 -8
-109 -149 -233 -315 l-225 -302 -713 0 -712 0 131 262 c72 143 141 285 154
315 l24 53 791 0 c656 0 790 -2 783 -13z m1597 6 c0 -5 -138 -146 -307 -315
l-308 -308 -708 0 c-444 0 -707 4 -705 10 2 5 105 146 231 315 l227 305 785 0
c432 0 785 -3 785 -7z m-12437 -321 l307 -307 -2 -711 -3 -711 -312 233 -313
234 0 785 c0 432 3 785 8 785 4 0 145 -138 315 -308z m12457 -477 l0 -785
-312 -234 -313 -235 -3 712 -2 712 307 307 c170 170 311 308 315 308 5 0 8
-353 8 -785z m-10498 -115 l207 -275 -642 -3 -642 -2 -272 272 c-150 150 -273
276 -273 280 0 5 318 7 708 6 l707 -3 207 -275z m1368 0 l140 -280 -642 0
-643 1 -180 241 c-99 133 -193 259 -208 280 l-29 38 711 0 711 0 140 -280z
m1300 274 c0 -3 28 -114 61 -247 34 -133 65 -257 69 -274 l8 -33 -642 0 -641
0 -138 275 c-75 151 -137 277 -137 280 0 3 320 5 710 5 391 0 710 -3 710 -6z
m1438 -276 l2 -278 -644 0 -644 0 -65 263 c-36 144 -69 271 -73 280 -6 16 37
17 707 15 l714 -3 3 -277z m1430 265 c-3 -10 -33 -136 -68 -280 l-64 -263
-643 0 -643 0 0 280 0 280 711 0 c673 0 711 -1 707 -17z m1302 -263 l-140
-280 -640 0 c-352 0 -640 2 -640 4 0 6 130 529 135 544 3 9 155 12 715 12
l710 0 -140 -280z m1570 275 c0 -2 -92 -128 -205 -280 l-205 -275 -640 0
c-352 0 -640 2 -640 5 0 3 62 129 137 280 l138 275 707 0 c390 0 708 -2 708
-5z m1430 -3 c0 -4 -123 -130 -273 -280 l-272 -272 -638 2 -637 3 206 278 207
277 703 0 c387 0 704 -3 704 -8z m-11193 -284 l273 -273 0 -641 0 -642 -280
210 -280 210 0 704 c0 387 3 704 7 704 5 0 131 -123 280 -272z m11213 -433 l0
-705 -280 -210 -280 -210 0 642 0 643 272 272 c150 150 276 273 280 273 5 0 8
-317 8 -705z m-9447 -102 l186 -248 -577 -3 -577 -2 -250 247 -250 248 248
-250 247 -250 0 -573 c0 -316 -4 -572 -9 -570 -4 2 -117 84 -249 183 l-241
180 -1 636 c0 350 3 639 7 642 3 4 293 7 643 7 l638 0 185 -247z m1232 -3
l125 -250 -575 0 -575 0 -178 238 c-98 130 -182 243 -186 250 -6 9 123 12 628
12 l636 0 125 -250z m1229 13 c33 -131 61 -244 64 -250 3 -10 -116 -13 -575
-13 l-578 0 -123 245 c-67 135 -122 247 -122 250 0 3 287 5 638 5 l637 0 59
-237z m1236 -13 l0 -250 -578 0 -577 0 -59 233 c-33 127 -61 240 -64 250 -4
16 31 17 637 17 l641 0 0 -250z m1287 238 c-2 -7 -30 -120 -62 -250 l-58 -238
-578 0 -579 0 0 250 0 250 641 0 c509 0 640 -3 636 -12z m1280 -20 c-8 -18
-63 -131 -123 -250 l-109 -218 -578 0 c-459 0 -578 3 -574 13 2 6 30 119 62
250 l59 237 638 0 638 0 -13 -32z m1292 12 c-8 -11 -90 -123 -184 -249 l-170
-230 -578 0 -577 -1 88 178 c49 97 104 210 123 250 l33 72 639 0 c637 0 639 0
626 -20z m1309 -625 l2 -640 -250 -188 -250 -187 0 577 0 578 248 250 247 250
-250 -248 -250 -247 -572 2 -571 3 184 248 185 247 637 -2 637 -3 3 -640z
m-11230 15 l301 -225 1 -712 0 -713 -315 157 -315 158 0 788 c0 663 2 787 14
780 7 -4 149 -109 314 -233z m12452 -548 l0 -787 -315 -158 -315 -157 0 713 1
712 311 233 c171 127 313 232 315 232 2 0 3 -354 3 -788z m-9716 439 c91 -121
166 -222 166 -225 0 -3 -233 -6 -517 -6 l-518 0 -225 223 -225 222 223 -225
222 -225 0 -518 0 -517 -225 167 -224 168 -1 571 c0 314 3 574 7 577 3 4 264
7 579 7 l572 0 166 -219z m1108 4 c59 -115 108 -216 108 -222 0 -10 -109 -13
-514 -13 l-514 0 -159 213 c-87 116 -162 218 -167 225 -6 10 107 12 565 10
l573 -3 108 -210z m1107 3 c30 -117 56 -219 59 -225 3 -10 -104 -13 -514 -13
l-519 0 -110 216 c-60 118 -111 220 -113 225 -2 5 219 9 570 9 l574 0 53 -212z
m1111 -13 l0 -225 -519 0 -519 0 -51 208 c-29 114 -54 215 -57 225 -5 16 27
17 570 17 l576 0 0 -225z m1160 220 c0 -5 -80 -326 -101 -407 l-10 -38 -519 0
-520 0 0 225 0 225 575 0 c316 0 575 -2 575 -5z m1160 0 c0 -3 -50 -104 -110
-225 l-110 -220 -515 0 c-283 0 -515 3 -515 8 0 4 23 105 52 225 l53 217 572
0 c315 0 573 -2 573 -5z m1160 0 c0 -3 -74 -104 -165 -225 l-165 -220 -515 0
c-283 0 -515 2 -515 5 0 3 50 104 110 225 l110 220 570 0 c314 0 570 -2 570
-5z m1168 -575 l2 -575 -222 -167 -223 -167 -3 517 -2 517 222 225 223 225
-225 -223 -225 -222 -512 2 -511 3 165 223 165 222 572 -2 571 -3 3 -575z
m-10104 15 l266 -200 0 -637 c0 -351 -2 -638 -5 -638 -3 0 -129 62 -280 137
l-275 138 0 708 c0 595 2 707 14 700 7 -4 133 -98 280 -208z m11206 -492 l0
-708 -280 -140 -280 -141 0 641 0 640 277 208 c152 114 278 207 280 207 2 0 3
-318 3 -707z m-8743 395 l152 -203 -467 -3 -467 -2 -197 197 c-109 109 -198
201 -198 205 0 5 231 8 513 8 l512 0 152 -202z m1001 -3 l102 -205 -465 0
-464 0 -148 195 c-81 108 -149 200 -151 205 -2 6 188 10 510 10 l513 0 103
-205z m994 10 c26 -104 48 -196 48 -202 0 -10 -99 -13 -463 -13 l-462 0 -103
205 -102 205 517 -2 517 -3 48 -190z m998 -10 l0 -205 -465 0 -464 0 -10 38
c-54 208 -91 356 -91 363 0 5 215 9 515 9 l515 0 0 -205z m1047 191 c-3 -8
-27 -100 -52 -205 l-47 -191 -466 2 -467 3 -3 188 c-2 104 -1 195 2 203 5 12
83 14 522 14 441 0 515 -2 511 -14z m1043 10 c0 -14 -195 -398 -204 -402 -6
-2 -216 -3 -467 -2 l-456 3 49 203 50 202 514 0 c283 0 514 -2 514 -4z m1043
-8 c-5 -7 -73 -100 -152 -205 l-143 -193 -464 0 c-255 0 -464 2 -464 4 0 3 45
95 100 205 l100 201 516 0 c411 0 515 -3 507 -12z m1037 4 c0 -4 -89 -96 -198
-205 l-197 -197 -459 2 -458 3 151 203 150 202 506 0 c278 0 505 -3 505 -8z
m-8147 -210 l197 -197 -2 -463 -3 -463 -202 152 -203 151 0 509 c0 280 3 509
8 509 4 0 96 -89 205 -198z m8167 -312 l0 -510 -200 -150 c-110 -82 -202 -150
-205 -150 -3 0 -5 208 -5 462 l0 463 197 197 c109 109 201 198 205 198 5 0 8
-229 8 -510z m-8860 -737 c0 -315 -2 -573 -5 -573 -3 0 -115 55 -250 122
l-245 123 0 637 0 638 250 -187 250 -188 0 -572z m9840 308 l0 -638 -250 -126
-250 -125 0 577 0 576 248 187 c136 103 248 187 250 187 1 1 2 -286 2 -638z
m-7868 364 c73 -97 135 -180 136 -186 3 -6 -145 -9 -414 -9 l-419 1 -177 177
c-98 97 -178 180 -178 184 0 4 207 8 460 8 l459 0 133 -175z m901 0 c48 -96
87 -180 87 -185 0 -6 -146 -10 -413 -10 l-413 0 -109 147 c-61 80 -123 164
-138 185 l-29 38 464 0 463 0 88 -175z m857 168 c0 -5 20 -84 45 -178 24 -93
41 -173 36 -178 -4 -4 -191 -6 -417 -5 l-409 3 -93 183 -92 182 465 0 c256 0
465 -3 465 -7z m940 -178 l0 -185 -417 2 -418 3 -46 183 -47 182 464 0 464 0
0 -185z m940 173 c-1 -7 -20 -89 -43 -183 l-42 -170 -418 -3 -417 -2 0 185 0
185 460 0 c362 0 460 -3 460 -12z m940 0 c-1 -7 -40 -89 -88 -183 l-87 -170
-409 -3 c-226 -1 -413 1 -417 5 -4 5 12 87 36 183 24 96 44 176 44 178 1 1
208 2 461 2 362 0 460 -3 460 -12z m940 6 c0 -9 -251 -348 -264 -356 -17 -12
-826 -10 -826 2 0 5 39 89 87 185 l88 175 457 0 c252 0 458 -3 458 -6z m930
-2 c0 -4 -80 -87 -178 -184 l-177 -177 -408 -1 c-224 0 -407 3 -407 6 0 4 60
87 133 185 l132 178 453 1 c248 0 452 -4 452 -8z m-7327 -190 l177 -178 0
-412 c0 -227 -3 -412 -7 -412 -3 0 -86 60 -184 133 l-178 132 -1 458 c0 251 4
457 8 457 4 0 87 -80 185 -178z m7347 -280 l0 -457 -171 -128 c-94 -71 -177
-131 -184 -134 -12 -4 -15 57 -15 408 l0 413 177 178 c98 98 181 178 185 178
4 0 8 -206 8 -458z m-7970 -664 l0 -518 -225 112 -225 113 0 572 0 573 225
-167 224 -168 1 -517z m8850 278 l0 -574 -217 -109 c-120 -59 -221 -110 -225
-111 -5 -2 -7 230 -6 515 l3 518 220 167 c121 92 221 167 223 167 1 1 2 -257
2 -573z m-7075 328 c64 -86 115 -158 113 -160 -2 -2 -172 -4 -378 -4 l-374 -1
-160 158 -161 158 158 -160 157 -161 3 -372 c1 -205 -1 -372 -6 -372 -4 0 -77
52 -162 116 l-155 116 0 413 c0 226 3 415 7 418 3 4 194 7 423 7 l418 0 117
-156z m808 0 c43 -86 76 -158 74 -160 -2 -2 -169 -4 -373 -4 l-369 -1 -117
153 c-64 84 -117 156 -117 161 -1 4 185 7 412 7 l412 0 78 -156z m811 1 c21
-86 36 -158 34 -160 -2 -3 -170 -5 -374 -6 l-369 -1 -83 161 -82 161 418 0
418 0 38 -155z m806 -5 l0 -160 -375 0 -374 0 -10 38 c-22 82 -71 274 -71 278
0 2 187 4 415 4 l415 0 0 -160z m850 153 c0 -5 -18 -75 -38 -158 l-38 -150
-377 -3 -377 -2 0 160 0 160 415 0 c228 0 415 -3 415 -7z m770 -153 l-80 -160
-375 0 c-206 0 -375 3 -375 8 0 4 17 76 37 160 l37 152 418 0 418 0 -80 -160z
m919 153 c0 -5 -53 -77 -117 -161 l-117 -153 -369 1 c-204 0 -371 2 -373 4 -2
2 31 74 74 160 l78 156 412 0 c227 0 413 -3 412 -7z m849 -415 l2 -417 -160
-121 -160 -120 -2 372 -3 373 160 165 160 165 -161 -158 -160 -158 -364 1
c-200 0 -365 2 -367 3 -1 2 50 74 114 160 l116 157 411 -2 411 -3 3 -417z
m-9453 60 l305 -153 0 -712 c0 -392 -3 -713 -7 -713 -5 1 -145 35 -313 78
l-305 77 -3 788 c-1 520 1 787 8 787 5 0 147 -69 315 -152z m12453 -635 l-3
-788 -285 -72 c-157 -40 -297 -75 -313 -78 l-27 -7 2 714 3 713 300 152 c165
84 306 152 313 153 10 0 12 -161 10 -787z m-10368 587 l200 -151 0 -459 c0
-298 -3 -460 -10 -460 -5 0 -98 44 -205 97 l-195 98 0 512 c0 282 2 513 5 513
2 0 94 -68 205 -150z m8170 -363 l0 -512 -196 -100 c-108 -55 -200 -101 -205
-103 -5 -2 -9 194 -9 461 l0 465 202 151 c111 83 203 151 205 151 2 0 3 -231
3 -513z m-6367 288 l107 -145 -342 0 -343 0 -145 143 -145 142 143 -145 142
-145 0 -338 0 -337 -145 107 -144 108 -1 371 c0 204 3 374 7 377 3 4 175 7
382 7 l376 -1 108 -144z m725 0 l72 -145 -338 0 -337 1 -75 100 c-41 56 -90
121 -108 145 l-34 44 374 0 373 0 73 -145z m701 108 c5 -21 21 -82 35 -135 14
-54 26 -102 26 -108 0 -6 -118 -10 -338 -10 l-337 0 -73 145 -72 145 375 0
374 0 10 -37z m751 -25 c0 -35 3 -100 7 -146 l6 -82 -343 2 -344 3 -33 130
c-18 72 -33 136 -33 143 0 9 81 12 370 12 l370 0 0 -62z m744 -30 c-13 -51
-28 -117 -34 -145 l-11 -53 -340 0 -339 0 0 145 0 145 374 0 374 0 -24 -92z
m714 -53 l-73 -145 -338 0 c-318 0 -338 1 -333 18 3 9 19 74 37 145 l31 127
374 0 374 0 -72 -145z m825 133 c-5 -7 -53 -73 -107 -145 l-98 -133 -339 0
-339 0 72 145 73 145 374 0 c297 0 372 -3 364 -12z m765 -368 l2 -375 -142
-107 -143 -107 -3 337 -2 336 142 146 143 145 -145 -142 -145 -143 -328 0
c-180 0 -327 2 -327 5 0 3 47 69 105 145 l106 140 367 -2 367 -3 3 -375z
m-8508 55 l270 -135 0 -640 c0 -352 -3 -640 -7 -640 -5 1 -129 31 -278 68
l-270 67 -3 708 c-1 473 1 707 8 707 6 0 132 -61 280 -135z m11210 -573 l0
-707 -272 -68 c-150 -37 -276 -67 -280 -67 -5 0 -8 288 -8 640 l0 639 268 135
c147 74 273 135 280 136 9 0 12 -148 12 -708z m-9330 528 c91 -68 168 -128
172 -134 12 -17 10 -826 -2 -826 -5 0 -89 39 -185 87 l-175 88 0 464 c0 369 3
461 13 454 6 -6 86 -65 177 -133z m7350 -329 l0 -459 -181 -90 c-118 -59 -182
-86 -185 -78 -3 7 -3 194 -2 417 l3 404 175 132 c96 73 178 133 183 133 4 0 7
-207 7 -459z m-5736 270 c53 -70 96 -131 96 -135 0 -3 -136 -6 -302 -6 l-301
0 -129 127 c-70 70 -128 131 -128 135 0 4 150 8 334 8 l334 0 96 -129z m659 0
c37 -71 67 -132 67 -135 0 -4 -136 -5 -302 -4 l-302 3 -98 128 c-54 70 -98
130 -98 132 0 3 150 5 333 5 l334 0 66 -129z m627 107 c11 -26 60 -220 60
-237 0 -8 -90 -11 -302 -9 l-301 3 -63 120 c-35 66 -64 126 -64 133 0 9 73 12
330 12 l330 0 10 -22z m685 -113 l0 -130 -304 0 -305 0 -32 127 c-17 70 -29
130 -26 133 3 3 154 4 336 3 l331 -3 0 -130z m685 126 c0 -15 -50 -216 -60
-238 l-10 -23 -300 0 -300 0 0 135 0 135 335 0 c184 0 335 -4 335 -9z m680 0
c0 -6 -27 -66 -60 -135 l-60 -126 -298 0 c-164 0 -301 2 -304 5 -5 5 41 207
57 253 5 15 665 18 665 3z m690 3 c0 -4 -43 -65 -96 -135 l-96 -129 -299 0
c-164 0 -299 3 -299 6 0 9 99 216 116 242 l14 22 330 0 c182 0 330 -3 330 -6z
m670 -2 c0 -4 -58 -65 -128 -135 l-129 -127 -292 0 c-240 0 -291 2 -284 13 4
8 49 68 98 135 l90 122 323 0 c177 0 322 -4 322 -8z m-5337 -140 l127 -129 0
-296 c0 -164 -3 -297 -6 -297 -4 0 -65 43 -135 96 l-129 96 0 329 c0 181 4
329 8 329 4 0 65 -58 135 -128z m5357 -202 l0 -329 -120 -91 c-66 -50 -127
-93 -135 -96 -13 -5 -15 31 -15 292 l0 297 127 129 c70 70 131 128 135 128 4
0 8 -148 8 -330z m-7420 -645 c0 -316 -2 -575 -5 -575 -3 0 -115 28 -250 61
l-245 61 0 639 0 639 250 -125 250 -125 0 -575z m9836 -453 c-6 -5 -466 -121
-483 -122 -10 0 -13 121 -13 575 l0 574 248 124 247 124 3 -635 c1 -349 0
-637 -2 -640z m-8388 1110 l153 -117 2 -373 c1 -204 -1 -372 -5 -372 -4 0 -78
35 -163 77 l-155 78 0 412 c0 227 3 413 8 412 4 0 76 -53 160 -117z m6612
-296 l0 -414 -160 -81 -160 -81 -2 376 -3 375 159 120 c88 65 161 119 163 119
2 0 3 -186 3 -414z m-5157 242 l86 -113 -276 -3 -277 -2 -108 107 c-59 59
-108 111 -108 115 0 5 134 8 299 8 l298 0 86 -112z m592 2 c30 -60 55 -112 55
-115 0 -3 -123 -5 -272 -5 l-273 1 -75 101 c-41 55 -79 107 -83 114 -7 12 43
14 292 14 l301 0 55 -110z m589 5 c14 -57 26 -109 26 -115 0 -7 -91 -10 -270
-10 l-270 0 -55 110 c-30 60 -55 112 -55 115 0 3 134 5 299 5 l299 0 26 -105z
m596 -10 l0 -115 -274 0 -275 0 -14 53 c-8 28 -20 75 -27 102 -6 28 -14 56
-16 63 -3 9 62 12 301 12 l305 0 0 -115z m610 105 c0 -6 -12 -58 -26 -115
l-26 -105 -274 0 -274 0 0 115 0 115 300 0 c199 0 300 -3 300 -10z m620 5 c0
-3 -25 -55 -55 -115 l-55 -110 -275 0 c-215 0 -273 3 -270 13 2 6 14 53 25
102 12 50 23 96 25 103 3 9 73 12 305 12 165 0 300 -2 300 -5z m579 -52 c-24
-32 -62 -84 -86 -115 l-44 -58 -270 0 c-148 0 -269 2 -269 5 0 3 25 55 55 115
l55 110 300 0 301 0 -42 -57z m631 49 c0 -4 -49 -56 -108 -115 l-108 -107
-262 2 -263 3 83 112 83 112 288 1 c158 0 287 -3 287 -8z m-4690 -499 l0 -273
-115 86 -115 86 0 302 0 301 115 -115 115 -115 0 -272z m4710 197 l0 -300
-112 -84 -113 -85 -3 272 -2 271 112 113 c62 62 114 113 115 113 2 0 3 -135 3
-300z m-6670 -581 l0 -516 -72 17 c-40 10 -142 35 -225 55 l-153 37 0 574 0
574 225 -112 225 -113 0 -516z m8846 -407 c-5 -4 -424 -111 -439 -112 -4 0 -6
233 -5 518 l3 517 220 112 220 112 3 -571 c1 -314 0 -573 -2 -576z m-7513 973
l107 -79 0 -338 0 -338 -145 72 -145 73 0 373 0 374 38 -29 c21 -15 87 -64
145 -108z m5917 -240 l0 -375 -140 -70 c-77 -38 -142 -70 -145 -70 -3 0 -5
152 -5 338 l1 337 142 107 c78 59 143 107 145 107 1 1 2 -168 2 -374z m-4643
223 c38 -51 73 -99 77 -105 6 -10 -45 -13 -240 -13 l-247 0 -106 102 -106 103
103 -105 102 -105 0 -239 c0 -149 -4 -236 -10 -234 -5 2 -52 34 -105 72 l-95
70 0 266 c0 147 3 270 7 273 3 4 129 7 278 7 l273 0 69 -92z m536 -3 c26 -52
47 -100 47 -105 0 -6 -89 -10 -240 -10 l-239 0 -76 100 c-41 54 -75 102 -75
105 0 3 120 5 268 5 l267 0 48 -95z m516 58 c25 -95 41 -161 41 -167 0 -3
-109 -6 -243 -6 l-242 0 -53 105 -52 105 270 0 269 0 10 -37z m551 -68 l0
-105 -247 2 -247 3 -23 90 c-12 50 -23 96 -23 103 0 9 61 12 270 12 l270 0 0
-105z m550 101 c0 -8 -41 -177 -47 -191 -4 -13 -45 -15 -249 -15 l-244 0 0
105 0 105 270 0 c149 0 270 -2 270 -4z m508 -101 l-53 -105 -242 0 c-168 0
-243 3 -243 11 0 10 37 162 45 187 3 9 67 12 275 12 l270 0 -52 -105z m596 93
c-4 -7 -39 -55 -77 -105 l-69 -93 -244 0 -244 0 52 105 53 105 268 0 c212 0
267 -3 261 -12z m554 -264 l2 -272 -102 -76 -103 -77 -3 243 -2 242 102 105
103 106 -106 -103 -106 -102 -232 0 c-127 0 -231 2 -231 4 0 3 34 50 75 105
l76 101 262 -2 262 -3 3 -271z m-5998 -521 c0 -255 -3 -463 -7 -463 -5 1 -96
23 -203 49 l-195 49 -3 516 -2 516 205 -102 205 -103 0 -462z m7970 144 l0
-512 -205 -51 -205 -51 2 466 3 466 193 98 c106 53 197 97 203 97 5 0 9 -198
9 -513z m-6797 383 l127 -94 0 -299 c0 -286 -1 -298 -19 -292 -10 3 -69 31
-132 63 l-114 57 -3 334 c-1 183 2 331 6 329 5 -1 66 -46 135 -98z m5357 -240
l0 -330 -131 -65 c-72 -36 -133 -65 -135 -65 -2 0 -3 136 -2 302 l3 303 120
92 c66 51 126 92 133 92 9 1 12 -71 12 -329z m-4185 208 c33 -45 64 -87 68
-95 7 -11 -31 -13 -214 -13 l-222 0 -96 92 -96 93 93 -95 92 -95 0 -213 c0
-116 -3 -212 -6 -212 -4 0 -47 30 -95 66 l-89 66 0 237 c0 131 3 241 7 244 3
4 117 7 252 7 l246 -1 60 -81z m483 -3 c23 -47 42 -90 42 -95 0 -6 -80 -10
-215 -10 l-214 0 -62 83 c-34 45 -67 88 -72 95 -7 9 41 12 235 12 l244 0 42
-85z m480 -2 c12 -49 22 -91 22 -95 0 -5 -98 -8 -218 -8 l-217 0 -48 95 -47
95 243 0 243 0 22 -87z m482 -8 l0 -95 -222 2 -222 3 -17 70 c-10 39 -21 80
-24 93 l-5 22 245 0 245 0 0 -95z m495 73 c-3 -13 -14 -54 -24 -93 l-17 -70
-222 -3 -222 -2 0 95 0 95 245 0 245 0 -5 -22z m458 -73 l-48 -95 -217 0
c-144 0 -218 4 -218 10 0 6 10 49 21 95 l21 85 244 0 244 0 -47 -95z m476 0
l-71 -95 -214 0 c-134 0 -214 4 -214 10 0 5 19 48 42 95 l42 85 243 0 243 0
-71 -95z m558 -155 l3 -245 -93 -68 -92 -68 -3 218 -2 217 92 95 93 96 -96
-93 -96 -92 -207 0 c-171 0 -206 2 -199 13 4 8 35 51 68 95 l60 82 235 -3 235
-2 2 -245z m-5399 -467 c2 -327 0 -413 -10 -413 -7 0 -91 19 -185 42 l-173 42
0 463 0 463 183 -92 182 -93 3 -412z m7172 127 l0 -459 -37 -10 c-84 -22 -322
-81 -328 -81 -3 0 -4 188 -3 417 l3 417 170 87 c94 48 176 88 183 88 9 1 12
-97 12 -459z m-6120 348 l110 -83 0 -270 0 -271 -112 56 -113 57 -3 296 c-1
164 0 297 3 297 3 0 55 -37 115 -82z m4820 -217 l0 -300 -109 -55 c-61 -31
-112 -56 -116 -56 -3 0 -4 122 -3 272 l3 272 108 83 c60 46 111 83 113 83 2 0
4 -135 4 -299z m-3757 180 c31 -43 57 -81 57 -85 0 -3 -89 -6 -197 -6 l-198 0
-77 77 c-43 43 -78 81 -78 85 0 5 98 8 218 8 l217 -1 58 -78z m435 -6 l42 -85
-198 0 -197 1 -63 84 -62 85 218 0 218 0 42 -85z m426 18 c9 -38 19 -76 22
-85 5 -17 -9 -18 -193 -18 l-199 0 -42 85 -42 85 219 0 219 0 16 -67z m436
-18 l0 -85 -198 0 -198 0 -19 73 c-10 39 -20 78 -23 85 -3 9 44 12 217 12
l221 0 0 -85z m446 68 c-3 -10 -13 -48 -22 -85 l-16 -68 -199 0 -199 0 0 85 0
85 221 0 c205 0 220 -1 215 -17z m412 -68 l-42 -85 -199 0 c-175 0 -198 2
-193 15 3 9 13 47 22 85 l17 70 219 0 218 0 -42 -85z m470 53 c-14 -18 -42
-57 -63 -85 l-39 -53 -193 0 c-120 0 -193 4 -193 10 0 5 17 43 37 85 l37 75
219 0 219 0 -24 -32z m442 25 c0 -4 -35 -43 -77 -85 l-78 -78 -182 0 c-101 0
-183 3 -183 6 0 4 26 42 58 85 l57 78 203 1 c111 0 202 -3 202 -7z m-3488 -90
l78 -78 0 -192 c0 -106 -2 -193 -5 -193 -2 0 -40 28 -85 62 l-80 61 0 209 c0
114 3 208 7 208 4 0 43 -35 85 -77z m3508 -135 l-1 -213 -78 -57 c-43 -32 -81
-58 -85 -58 -3 0 -6 87 -6 192 l0 193 77 77 c43 43 81 78 85 78 5 0 8 -96 8
-212z m-4870 -412 c0 -351 -1 -374 -17 -370 -10 2 -70 17 -133 33 -63 16 -127
31 -142 35 l-28 6 0 415 0 415 160 -80 160 -80 0 -374z m6460 116 l0 -418
-152 -37 c-84 -21 -157 -37 -163 -37 -7 0 -9 130 -8 372 l2 373 158 82 c87 44
159 81 161 82 1 1 2 -187 2 -417z m-5402 -10 l2 -242 -105 52 -105 53 0 268 0
268 103 -78 102 -78 3 -243z m4232 120 l0 -267 -95 -48 c-52 -26 -100 -47
-105 -47 -6 0 -10 89 -10 240 l0 239 98 75 c53 41 100 75 105 75 4 1 7 -119 7
-267z m-3376 163 l56 -75 -182 0 -182 0 -68 67 c-38 37 -68 71 -68 75 0 5 87
8 194 8 l194 0 56 -75z m389 0 l37 -75 -178 0 -177 1 -45 61 c-25 34 -49 67
-53 75 -7 11 27 13 185 13 l194 0 37 -75z m382 25 c6 -25 15 -57 18 -72 l7
-28 -178 0 -178 0 -37 75 -37 75 197 -2 197 -3 11 -45z m395 -25 l0 -75 -178
0 -179 0 -16 69 c-10 38 -17 72 -17 75 0 3 88 6 195 6 l195 0 0 -75z m400 65
c0 -6 -7 -40 -16 -75 l-16 -65 -179 0 -179 0 0 75 0 75 195 0 c129 0 195 -4
195 -10z m373 -65 l-37 -75 -177 0 -177 0 8 33 c5 17 14 51 20 75 l11 42 194
0 195 0 -37 -75z m437 70 c0 -3 -24 -37 -52 -75 l-52 -70 -178 0 -178 0 37 75
37 75 193 0 c106 0 193 -2 193 -5z m380 -2 c0 -4 -30 -38 -67 -75 l-67 -68
-163 0 c-90 0 -163 2 -163 5 0 3 23 37 51 75 l51 70 179 0 c98 0 179 -3 179
-7z m-3138 -80 l68 -67 0 -174 c0 -96 -3 -172 -7 -170 -5 2 -38 25 -75 53
l-68 50 0 187 c0 104 3 188 7 188 4 0 38 -30 75 -67z m3158 -122 l0 -189 -75
-56 -75 -56 0 177 0 177 67 68 c37 38 71 68 75 68 5 0 8 -85 8 -189z m-7690
101 l305 -77 3 -712 2 -713 -315 0 -315 0 0 790 c0 435 3 790 8 789 4 0 144
-35 312 -77z m12460 -712 l0 -790 -315 0 -315 0 2 712 3 712 305 77 c168 42
308 78 313 78 4 1 7 -354 7 -789z m-9287 645 l137 -68 0 -334 c0 -183 -3 -333
-7 -333 -5 0 -70 14 -145 32 l-138 33 0 373 c0 205 3 372 8 369 4 -2 69 -34
145 -72z m5947 -305 l0 -369 -37 -10 c-86 -23 -242 -61 -247 -61 -4 0 -5 152
-4 337 l3 336 130 68 c72 37 136 68 143 68 9 1 12 -79 12 -369z m-4942 275
l81 -60 1 -217 0 -218 -95 47 -95 48 0 238 c0 197 2 237 13 230 8 -4 50 -35
95 -68z m3892 -168 l0 -243 -85 -42 c-47 -23 -90 -42 -95 -42 -6 0 -10 80 -10
215 l0 214 93 71 c50 38 93 70 95 70 1 0 2 -109 2 -243z m-3066 178 c14 -19
38 -51 52 -70 l26 -35 -162 0 -162 0 -64 62 c-35 33 -64 65 -64 70 0 4 78 8
174 8 l174 0 26 -35z m374 -30 c18 -36 32 -68 32 -70 0 -3 -69 -5 -154 -5
l-155 0 -44 58 c-24 31 -47 63 -51 70 -6 9 30 12 166 12 l174 0 32 -65z m349
10 c23 -91 33 -85 -142 -85 l-155 0 -30 60 c-16 33 -30 64 -30 70 0 7 57 10
172 8 l172 -3 13 -50z m351 -17 l3 -68 -159 0 -160 0 -16 65 c-9 35 -16 67
-16 70 0 3 78 4 173 3 l172 -3 3 -67z m362 55 c-1 -10 -7 -40 -14 -68 l-13
-50 -159 0 -159 0 -3 54 c-2 29 -1 60 2 67 4 11 41 14 176 14 155 0 170 -2
170 -17z m360 7 c0 -6 -14 -37 -30 -70 l-30 -60 -156 0 -156 0 6 32 c3 18 11
49 17 70 l10 38 169 0 c110 0 170 -4 170 -10z m368 2 c-1 -5 -23 -36 -48 -70
l-45 -61 -157 -1 c-87 0 -158 2 -158 5 0 8 51 108 62 123 12 14 352 18 346 4z
m342 0 c0 -5 -29 -37 -64 -70 l-64 -62 -141 0 c-78 0 -141 3 -141 6 0 3 21 35
47 70 l47 64 158 0 c87 0 158 -4 158 -8z m-2822 -76 l62 -64 0 -152 c0 -83 -4
-150 -8 -148 -5 2 -36 23 -70 48 l-61 45 -1 168 c0 92 4 167 8 167 5 0 37 -29
70 -64z m2842 -105 l0 -169 -35 -26 c-19 -14 -51 -38 -70 -52 l-35 -26 0 157
0 157 62 64 c33 35 65 64 70 64 4 0 8 -76 8 -169z m-6925 91 l270 -68 3 -642
2 -642 -280 0 -280 0 0 710 c0 391 3 710 8 710 4 0 129 -31 277 -68z m11215
-642 l0 -710 -280 0 -280 0 0 640 c0 352 1 640 3 640 1 1 124 32 272 70 149
37 273 69 278 69 4 1 7 -318 7 -709z m-8230 220 c0 -199 -3 -300 -10 -300 -6
0 -67 14 -135 31 l-125 31 0 328 c0 179 2 329 5 332 3 3 64 -23 135 -58 l130
-64 0 -300z m5228 88 l-3 -333 -105 -27 c-58 -15 -117 -30 -133 -34 l-27 -6 2
303 3 303 125 63 c68 35 128 63 132 63 5 0 7 -150 6 -332z m-4450 244 l72 -54
0 -194 0 -194 -85 42 -85 42 0 214 c0 168 3 212 13 206 6 -4 45 -32 85 -62z
m3502 -150 l0 -218 -75 -37 c-42 -20 -80 -37 -85 -37 -6 0 -10 73 -10 193 l1
192 82 62 c45 34 83 63 85 63 1 0 2 -98 2 -218z m-2735 131 l45 -58 -147 -3
-147 -3 -53 53 c-29 29 -53 56 -53 60 0 4 70 8 155 8 l155 0 45 -57z m315 -3
l30 -60 -142 0 -143 1 -19 27 c-11 15 -31 42 -44 60 l-24 32 156 0 156 0 30
-60z m310 18 c6 -24 13 -51 16 -60 5 -17 -6 -18 -138 -18 l-144 0 -27 55 c-15
31 -27 58 -27 60 0 3 70 5 155 5 l154 0 11 -42z m320 -18 l0 -60 -143 0 -144
0 -11 51 c-7 28 -12 55 -12 60 0 5 67 9 155 9 l155 0 0 -60z m326 43 c-3 -10
-10 -37 -16 -61 l-11 -43 -142 3 -142 3 -3 58 -3 57 161 0 c149 0 161 -1 156
-17z m318 -5 c-3 -13 -15 -40 -25 -60 l-19 -38 -140 0 c-156 0 -149 -4 -129
76 l11 44 155 0 154 0 -7 -22z m336 17 c0 -3 -19 -30 -42 -60 l-43 -55 -137 0
c-76 0 -138 2 -138 5 0 2 11 29 25 60 l26 55 154 0 c85 0 155 -2 155 -5z m300
-2 c0 -4 -23 -31 -52 -60 l-52 -53 -128 0 c-70 0 -128 2 -128 5 0 3 19 30 41
60 l41 55 139 0 c77 0 139 -3 139 -7z m-6203 -79 l243 -59 0 -577 0 -578 -250
0 -250 0 0 641 c0 352 3 638 8 636 4 -2 116 -30 249 -63z m3671 13 l53 -53 -3
-137 -3 -138 -57 43 -58 42 0 148 c0 81 4 148 8 148 4 0 31 -24 60 -53z m2552
-97 l0 -149 -53 -41 c-30 -22 -57 -40 -60 -40 -4 0 -7 62 -7 137 l0 137 52 53
c29 29 56 53 60 53 4 0 8 -67 8 -150z m3860 -490 l0 -640 -250 0 -250 0 0 575
0 575 28 6 c48 13 467 122 470 123 1 0 2 -287 2 -639z m-7520 525 l110 -55 0
-270 c0 -179 -3 -270 -10 -270 -6 0 -58 12 -115 26 l-105 26 0 299 c0 165 2
299 5 299 3 0 55 -25 115 -55z m4820 -253 l0 -298 -95 -23 c-52 -13 -104 -25
-115 -28 -20 -5 -20 -2 -18 267 l3 272 105 54 c58 30 108 54 112 54 5 0 8
-134 8 -298z m-4009 227 l69 -51 0 -174 0 -174 -75 37 -75 37 0 188 c0 103 3
188 6 188 4 0 37 -23 75 -51z m3159 -142 l0 -193 -75 -37 -75 -37 0 178 1 177
67 52 c37 28 70 52 75 52 4 1 7 -86 7 -192z m-2465 127 c19 -26 35 -51 35 -55
0 -5 -56 -9 -125 -9 l-126 0 -49 46 c-28 26 -50 51 -50 55 0 5 63 9 140 9
l139 0 36 -46z m288 -9 l27 -55 -124 0 -125 0 -34 43 c-57 71 -63 67 90 67
l139 0 27 -55z m276 33 c4 -13 11 -38 14 -56 l7 -33 -127 3 -127 3 -23 40
c-37 66 -38 65 112 65 131 0 136 -1 144 -22z m291 -33 l0 -55 -125 0 c-139 0
-132 -4 -150 78 l-7 32 141 0 141 0 0 -55z m290 38 c0 -10 -5 -35 -11 -56
l-10 -38 -127 3 -127 3 -3 39 c-6 67 -7 66 143 66 122 0 135 -2 135 -17z m300
12 c0 -3 -11 -28 -25 -55 l-25 -50 -126 0 -126 0 6 38 c14 77 2 72 157 72 76
0 139 -2 139 -5z m290 -1 c0 -4 -16 -28 -36 -55 l-36 -49 -124 0 c-68 0 -124
2 -124 5 0 3 11 28 25 55 l25 50 135 0 c74 0 135 -3 135 -6z m270 -3 c0 -4
-22 -29 -50 -55 l-49 -46 -111 0 c-60 0 -110 2 -110 5 0 3 17 28 37 55 l37 50
123 0 c68 0 123 -4 123 -9z m-5567 -72 l207 -51 0 -519 0 -519 -225 0 -225 0
0 576 c0 543 1 575 18 570 9 -3 110 -28 225 -57z m3289 14 l48 -47 0 -124 c0
-68 -3 -122 -8 -120 -4 2 -29 19 -54 38 l-47 35 -1 133 c0 72 3 132 7 132 4 0
29 -21 55 -47z m2298 -87 l0 -134 -49 -36 c-27 -20 -51 -36 -55 -36 -3 0 -6
55 -6 122 l0 122 47 48 c26 26 51 48 55 48 4 0 8 -60 8 -134z m3470 -446 l0
-570 -225 0 -225 0 2 517 3 517 205 52 c113 29 213 53 223 53 16 1 17 -32 17
-569z m-6662 183 c1 -134 0 -243 -4 -243 -6 0 -72 16 -166 41 l-38 10 0 270 0
270 103 -53 102 -53 3 -242z m4232 68 l0 -269 -87 -21 c-49 -12 -96 -24 -105
-27 -17 -5 -18 11 -18 238 l0 243 103 52 c56 29 103 52 105 52 1 1 2 -120 2
-268z m-3604 202 l64 -47 0 -153 c0 -84 -2 -153 -5 -153 -2 0 -34 14 -70 32
l-65 32 0 168 c0 92 3 168 6 168 3 0 35 -21 70 -47z m2842 -125 l-3 -173 -60
-32 c-33 -18 -63 -33 -68 -33 -4 0 -6 71 -5 157 l3 156 60 48 c33 26 63 48 68
48 4 1 6 -77 5 -171z m-2219 113 c17 -21 31 -42 31 -45 0 -3 -53 -6 -117 -6
l-117 0 -38 37 c-21 20 -38 41 -38 45 0 4 56 8 124 8 l124 0 31 -39z m259 -6
l22 -45 -114 0 -114 0 -24 33 c-45 60 -50 57 84 57 l124 0 22 -45z m258 0 l10
-45 -116 0 -116 0 -22 45 -22 45 128 0 127 0 11 -45z m254 0 l0 -45 -115 0
-114 0 -10 38 c-6 20 -11 40 -11 45 0 4 56 7 125 7 l125 0 0 -45z m257 0 l-10
-45 -119 0 -118 0 0 45 0 45 129 0 128 0 -10 -45z m273 40 c0 -3 -9 -24 -20
-45 l-20 -40 -115 0 c-63 0 -115 3 -115 6 0 4 5 24 12 45 l11 39 124 0 c67 0
123 -2 123 -5z m238 -40 l-33 -44 -112 -1 c-62 0 -113 2 -113 5 0 3 9 24 20
45 l20 40 126 0 125 0 -33 -45z m262 38 c0 -4 -17 -24 -37 -45 l-37 -38 -104
0 -103 0 32 45 32 45 109 0 c59 0 108 -3 108 -7z m-2010 -200 l0 -114 -45 33
-44 33 -1 125 0 124 45 -44 45 -44 0 -113z m2030 73 l0 -124 -42 -32 -43 -31
-3 112 -3 113 43 43 c23 24 43 43 45 43 2 0 3 -56 3 -124z m-5035 66 l190 -48
3 -467 2 -467 -205 0 -205 0 0 515 c0 406 3 515 13 515 6 0 98 -22 202 -48z
m8165 -467 l0 -515 -205 0 -205 0 0 464 0 464 198 50 c108 28 200 51 205 51 4
1 7 -231 7 -514z m-6002 161 l2 -218 -22 6 c-13 3 -56 14 -95 23 l-73 16 0
244 0 244 93 -48 92 -48 3 -219z m3805 -176 c-5 -4 -39 -15 -78 -24 -38 -9
-78 -19 -87 -22 -17 -5 -18 10 -18 213 l0 218 93 46 92 46 3 -235 c1 -130 -1
-239 -5 -242z m-3238 419 l55 -41 0 -139 0 -139 -60 30 -60 30 0 150 c0 83 2
150 5 150 3 0 30 -19 60 -41z m2555 -114 l0 -155 -50 -25 c-27 -14 -54 -25
-60 -25 -6 0 -10 49 -10 138 l1 137 57 42 c31 23 58 43 60 43 1 0 2 -70 2
-155z m-1987 95 l28 -40 -107 0 -108 0 -41 38 -40 37 38 -41 38 -41 -3 -96 -3
-97 -37 26 -38 27 0 107 c0 59 3 110 7 113 3 4 58 7 122 7 l116 0 28 -40z
m226 4 c12 -19 21 -37 21 -40 0 -2 -46 -4 -102 -4 l-103 0 -28 40 -28 40 109
0 110 0 21 -36z m224 29 c3 -5 8 -23 12 -40 l7 -33 -101 0 -101 0 -20 33 c-11
17 -20 35 -20 40 0 4 49 7 109 7 61 0 112 -3 114 -7z m237 -33 l0 -40 -100 0
c-99 0 -101 0 -110 26 -21 53 -19 54 100 54 l110 0 0 -40z m236 20 c-3 -11 -9
-29 -12 -40 -5 -18 -14 -20 -104 -20 l-98 0 -4 40 -4 40 114 0 c109 0 113 -1
108 -20z m224 -20 l-20 -40 -100 0 c-55 0 -100 4 -100 9 0 5 3 23 6 40 l7 31
113 0 114 0 -20 -40z m250 34 c0 -3 -12 -21 -26 -40 l-26 -34 -99 0 c-55 0
-99 2 -99 5 0 2 8 20 17 40 l17 35 108 0 c59 0 108 -3 108 -6z m228 -110 l3
-112 -41 -32 -40 -32 0 103 0 103 38 41 37 40 -41 -38 -41 -38 -86 3 -87 3 27
38 27 38 100 -3 101 -3 3 -111z m-4528 60 c85 -20 161 -41 168 -47 9 -7 12
-104 12 -423 l0 -414 -185 0 -185 0 0 466 c0 438 1 465 18 460 9 -2 87 -21
172 -42z m7350 -424 l0 -460 -185 0 -185 0 2 417 3 418 165 41 c91 23 173 42
183 43 16 1 17 -27 17 -459z m-5400 153 c0 -221 9 -204 -100 -175 l-65 17 -3
218 -2 217 85 -42 85 -42 0 -193z m3423 -163 c-8 -7 -134 -40 -153 -40 -6 0
-10 65 -10 193 l0 193 83 40 82 41 3 -210 c1 -116 -1 -214 -5 -217z m-2863
214 l0 -124 -55 27 -55 27 0 138 0 139 55 -42 55 -41 0 -124z m2248 59 l-3
-137 -40 -23 c-65 -37 -65 -37 -65 100 l1 122 47 37 c26 20 51 37 55 38 4 0 6
-62 5 -137z m-1794 94 c15 -19 26 -37 26 -40 0 -4 -40 -7 -90 -7 -86 0 -91 1
-125 31 -19 17 -35 35 -35 40 0 5 45 9 99 9 l100 0 25 -33z m209 -2 c9 -20 17
-38 17 -40 0 -3 -40 -5 -88 -5 -85 0 -89 1 -108 28 -40 54 -42 52 64 52 l98 0
17 -35z m207 9 c20 -52 17 -54 -80 -54 -89 0 -90 0 -105 30 -8 16 -15 34 -15
40 0 6 35 10 95 10 93 0 96 -1 105 -26z m210 -14 l0 -40 -89 0 -89 0 -11 31
c-6 18 -11 36 -11 40 0 5 45 9 100 9 l100 0 0 -40z m212 34 c3 -3 1 -21 -5
-40 l-10 -34 -89 0 -88 0 0 40 0 40 93 0 c52 0 96 -3 99 -6z m218 -1 c0 -5 -9
-23 -20 -40 l-20 -33 -85 0 c-92 0 -94 2 -79 58 6 21 11 22 105 22 55 0 99 -3
99 -7z m210 0 c0 -3 -11 -21 -26 -40 -25 -33 -25 -33 -110 -33 -52 0 -84 4
-84 10 0 6 7 24 15 40 l16 30 94 0 c52 0 95 -3 95 -7z m190 -2 c0 -5 -16 -23
-35 -40 -33 -28 -42 -31 -105 -31 -39 0 -70 3 -70 7 0 4 10 22 23 40 22 33 22
33 105 33 45 0 82 -4 82 -9z m-3909 -466 l0 -380 -161 -3 -160 -2 0 424 0 424
160 -42 161 -41 0 -380z m2258 420 c29 -34 31 -41 31 -115 0 -44 -3 -80 -7
-80 -4 0 -22 10 -40 23 l-33 22 0 93 c0 50 4 92 9 92 5 0 23 -16 40 -35z
m1671 -59 l0 -94 -34 -26 c-19 -14 -37 -26 -40 -26 -3 0 -6 38 -6 85 0 80 2
86 31 120 17 19 35 35 40 35 5 0 9 -42 9 -94z m2530 -321 l0 -415 -162 0 -163
0 5 376 5 377 150 38 c83 21 153 38 158 38 4 1 7 -186 7 -414z m-4860 138 c0
-188 3 -180 -60 -164 -19 5 -47 12 -62 15 l-28 6 0 195 0 195 75 -37 75 -37 0
-173z m3090 43 l0 -194 -65 -16 c-35 -9 -69 -16 -75 -16 -6 0 -10 59 -10 173
l0 173 73 36 c39 20 73 37 75 37 1 1 2 -86 2 -193z m-2590 7 l0 -113 -45 22
-45 22 0 123 0 124 45 -33 44 -33 1 -112z m2030 44 l0 -123 -45 -22 -45 -22 0
113 0 112 37 32 c21 18 41 32 46 33 4 0 7 -55 7 -123z m-1610 83 l21 -30 -87
0 c-76 0 -91 3 -111 22 -13 12 -23 25 -23 30 0 4 40 8 89 8 88 0 90 -1 111
-30z m184 5 c9 -13 16 -27 16 -30 0 -3 -36 -5 -81 -5 -72 0 -83 3 -100 23 -10
12 -18 25 -19 30 0 4 38 7 84 7 78 0 85 -2 100 -25z m186 18 c0 -5 3 -18 6
-30 6 -22 4 -23 -74 -23 -72 0 -83 2 -96 22 -9 12 -16 26 -16 30 0 10 180 10
180 1z m190 -23 l0 -30 -80 0 c-77 0 -81 1 -90 26 -6 14 -10 27 -10 30 0 2 41
4 90 4 l90 0 0 -30z m190 16 c0 -41 -10 -46 -91 -46 l-79 0 0 30 0 30 85 0
c67 0 85 -3 85 -14z m185 -16 c-15 -30 -17 -30 -95 -30 -83 0 -89 4 -74 44 5
13 23 16 95 16 l90 0 -16 -30z m185 0 c-21 -29 -24 -30 -101 -30 -43 0 -79 2
-79 5 0 2 5 16 12 30 11 24 15 25 100 25 l89 0 -21 -30z m180 22 c0 -5 -11
-19 -24 -31 -20 -19 -32 -22 -91 -19 l-67 3 22 28 c20 25 27 27 91 27 38 0 69
-4 69 -8z m-3687 -28 c56 -14 119 -30 140 -35 l37 -10 0 -344 0 -345 -145 0
-145 0 0 380 c0 209 3 380 6 380 3 0 51 -11 107 -26z m2225 -108 l-3 -78 -27
22 c-27 20 -28 26 -28 108 l0 87 30 -31 c30 -29 31 -33 28 -108z m1455 -62
l-28 -22 -3 80 c-3 77 -1 83 25 110 l28 29 3 -87 c3 -85 2 -88 -25 -110z
m2307 -184 l0 -370 -145 0 -145 0 2 337 3 337 120 32 c66 17 130 32 143 33
l22 1 0 -370z m-4430 310 l60 -30 0 -155 c0 -85 -2 -155 -5 -155 -3 0 -35 7
-70 16 l-65 16 0 169 c0 109 4 169 10 169 6 0 37 -14 70 -30z m510 -142 l0
-98 -40 20 -40 20 0 111 0 110 40 -32 40 -32 0 -99z m2330 -7 l0 -169 -65 -16
c-35 -9 -67 -16 -70 -16 -3 0 -5 70 -5 155 l0 155 58 29 c31 17 63 30 70 31 9
0 12 -40 12 -169z m-510 49 l0 -109 -30 -16 c-16 -8 -34 -15 -40 -15 -6 0 -10
36 -10 98 l1 97 37 27 c20 15 38 27 40 28 1 0 2 -49 2 -110z m-3469 40 l39
-11 -2 -307 -3 -307 -130 0 -130 0 -3 330 c-1 181 0 335 2 341 4 10 65 -3 227
-46z m2024 38 l15 -23 -76 -3 c-68 -3 -80 0 -103 20 l-26 23 23 -26 c18 -21
22 -37 22 -92 0 -37 -3 -67 -7 -67 -3 0 -15 7 -25 17 -14 13 -18 31 -18 88 0
39 3 75 7 78 3 4 44 7 89 7 75 0 84 -2 99 -22z m173 -3 l12 -26 -76 3 c-67 3
-79 6 -92 26 l-14 22 79 0 c76 0 80 -1 91 -25z m162 16 c0 -5 3 -16 6 -25 5
-14 -5 -16 -68 -16 -70 0 -76 2 -86 25 l-12 25 80 0 c44 0 80 -4 80 -9z m170
-16 c0 -24 -2 -25 -74 -25 -71 0 -74 1 -78 25 -5 25 -5 25 73 25 78 0 79 0 79
-25z m171 3 c-7 -21 -16 -23 -80 -26 -70 -3 -71 -3 -71 23 0 25 1 25 80 25 78
0 79 0 71 -22z m167 -3 c-10 -23 -16 -25 -85 -25 -72 0 -79 3 -67 34 5 13 22
16 85 16 l79 0 -12 -25z m166 0 c-15 -23 -22 -25 -90 -25 l-74 0 12 25 c11 24
16 25 90 25 l78 0 -16 -25z m174 -61 c3 -77 2 -82 -23 -98 l-25 -16 0 72 c0
60 4 76 23 97 l22 26 -26 -22 c-20 -18 -37 -23 -82 -23 -62 0 -66 4 -40 32 14
15 29 18 82 16 l66 -3 3 -81z m2062 -259 l0 -335 -135 0 -135 0 2 302 3 302
125 32 c69 18 128 33 133 33 4 1 7 -150 7 -334z m-3995 278 l55 -27 0 -138 c0
-78 -4 -138 -9 -138 -5 0 -32 5 -60 12 l-51 11 0 154 c0 84 2 153 5 153 2 0
29 -12 60 -27z m2555 -136 l0 -154 -51 -11 c-28 -7 -55 -12 -60 -12 -5 0 -9
60 -9 138 l0 138 53 26 c28 15 55 27 60 27 4 1 7 -68 7 -152z m-2123 117 c33
-25 33 -25 33 -110 0 -46 -2 -84 -5 -84 -2 0 -20 8 -40 17 l-35 17 0 93 c0 51
3 93 7 93 3 0 21 -11 40 -26z m1673 -69 l0 -95 -32 -20 c-18 -11 -36 -20 -40
-20 -5 0 -8 39 -8 87 0 85 0 87 33 114 17 16 35 28 40 29 4 0 7 -43 7 -95z
m-3180 47 l75 -19 3 -281 2 -282 -115 0 -115 0 0 309 0 309 38 -9 c20 -5 71
-17 112 -27z m2940 -582 l0 -620 -620 0 -620 0 0 620 0 620 620 0 620 0 0
-620z m1850 310 l0 -300 -115 0 -115 0 2 272 3 272 100 27 c55 15 106 27 113
28 9 1 12 -65 12 -299z m-3540 103 c0 -80 -4 -123 -11 -123 -5 0 -30 5 -55 11
l-44 11 0 139 0 139 55 -27 55 -27 0 -123z m2250 28 l0 -139 -44 -11 c-25 -6
-50 -11 -55 -11 -7 0 -11 43 -11 123 l0 123 53 26 c28 15 53 27 55 27 1 1 2
-61 2 -138z m-1890 8 l0 -80 -30 16 c-30 15 -30 16 -30 101 l0 85 30 -21 c29
-21 30 -24 30 -101z m1480 26 c0 -84 0 -85 -30 -100 l-30 -16 0 82 c0 72 3 83
23 100 12 10 25 18 30 19 4 0 7 -38 7 -85z m-2865 51 l80 -22 0 -250 0 -249
-102 -3 -103 -3 0 276 0 275 23 -1 c12 0 58 -11 102 -23z m4315 -246 l0 -270
-105 0 -105 0 0 240 c0 208 2 241 15 247 17 6 175 50 188 52 4 1 7 -120 7
-269z m-3190 92 c0 -103 -2 -113 -17 -108 -10 3 -30 8 -45 12 l-28 6 0 124 0
124 45 -22 45 -22 0 -114z m2030 24 l0 -124 -27 -6 c-16 -4 -36 -9 -45 -12
-16 -5 -18 5 -18 108 l0 114 43 21 c23 12 43 22 45 22 1 1 2 -55 2 -123z
m-1700 13 c0 -38 -3 -69 -6 -69 -3 0 -14 5 -25 10 -16 9 -19 22 -19 86 l0 74
25 -16 c23 -15 25 -23 25 -85z m1314 -66 c-30 -22 -34 -15 -34 54 0 55 4 71
23 91 l22 24 3 -78 c2 -65 0 -81 -14 -91z m-2551 129 l62 -17 0 -225 0 -225
-92 -3 -93 -3 0 251 0 252 30 -7 c17 -4 58 -14 93 -23z m3877 -222 l0 -240
-95 0 -95 0 0 218 0 218 83 21 c45 11 88 21 95 22 9 1 12 -53 12 -239z m-2905
203 l35 -17 0 -98 c0 -54 -4 -98 -9 -98 -5 0 -23 3 -40 6 l-31 7 0 108 c0 60
2 109 5 109 2 0 20 -8 40 -17z m1853 -208 c-2 -2 -20 -6 -40 -10 l-38 -7 0 98
0 99 38 20 37 20 3 -109 c1 -60 1 -110 0 -111z m-2698 196 c19 -6 54 -15 78
-21 l42 -11 -2 -202 -3 -202 -82 -3 -83 -3 0 226 c0 124 3 225 8 225 4 0 23
-4 42 -9z m3550 -216 l0 -215 -85 0 -85 0 0 195 0 194 38 10 c20 5 53 14 72
19 19 6 41 11 48 11 9 1 12 -48 12 -214z m-2610 180 c30 -15 30 -17 30 -100 0
-92 -2 -94 -57 -79 -22 6 -23 11 -23 100 0 59 4 94 10 94 6 0 24 -7 40 -15z
m1667 -182 c-3 -2 -21 -7 -41 -10 l-36 -6 0 86 0 87 38 19 37 19 3 -95 c1 -53
1 -97 -1 -100z m-2369 157 l42 -11 0 -184 0 -185 -75 0 -75 0 0 204 0 204 33
-8 c17 -5 51 -14 75 -20z m3132 -175 l0 -195 -75 0 -75 0 0 175 0 174 38 10
c35 9 104 28 110 30 1 1 2 -87 2 -194z m-2355 163 c24 -11 25 -15 25 -90 0
-81 -4 -87 -44 -72 -13 5 -16 23 -16 90 0 46 2 84 5 84 2 0 16 -5 30 -12z
m-590 -199 l0 -164 -65 0 -65 0 -3 170 c-1 93 0 175 2 181 3 8 21 7 68 -6 l63
-17 0 -164z m2095 117 c0 -67 -3 -85 -16 -90 -40 -15 -44 -9 -44 72 0 72 2 80
23 90 12 6 25 11 30 11 4 1 7 -37 7 -83z m690 -106 l0 -170 -70 0 -71 0 3 157
3 157 45 12 c97 26 90 37 90 -156z m-2119 150 c16 -9 19 -22 19 -81 0 -61 -2
-70 -16 -65 -9 3 -20 6 -25 6 -5 0 -9 34 -9 75 0 41 3 75 6 75 3 0 14 -5 25
-10z m1337 -151 c-31 -20 -38 -10 -38 60 0 60 3 70 23 84 l22 15 3 -76 c2 -53
-1 -78 -10 -83z m-1910 131 l42 -11 0 -149 0 -150 -60 0 -60 0 0 166 c0 153 1
165 18 160 9 -3 36 -10 60 -16z m2542 -145 l0 -155 -60 0 -60 0 0 140 0 139
43 11 c23 6 47 13 52 15 6 2 13 4 18 4 4 1 7 -69 7 -154z m-2422 115 l43 -11
-3 -132 -3 -132 -52 -3 -53 -3 0 150 c0 116 3 149 13 146 6 -2 31 -9 55 -15z
m2292 -130 l0 -140 -55 0 -55 0 0 124 0 125 48 14 c26 8 50 15 55 16 4 1 7
-62 7 -139z m-2177 103 l27 -5 0 -124 0 -124 -45 0 -45 0 0 136 c0 126 1 136
18 129 9 -3 29 -9 45 -12z m2057 -118 l0 -125 -45 0 -45 0 0 114 0 113 43 10
c23 6 43 11 45 12 1 0 2 -55 2 -124z m-1942 89 c9 -2 12 -34 12 -114 l0 -110
-40 0 -40 0 0 120 0 120 28 -6 c15 -3 33 -7 40 -10z m1832 -104 l0 -110 -40 0
-40 0 0 100 0 99 33 10 c17 5 35 10 40 10 4 1 7 -48 7 -109z m-1752 85 c22 -6
23 -10 20 -103 l-3 -97 -35 0 -35 0 -3 108 c-3 119 -8 110 56 92z m1662 -100
l0 -95 -40 0 -40 0 0 89 c0 96 1 97 58 100 21 1 22 -2 22 -94z m-1572 -12 l3
-93 -31 0 -30 0 0 96 0 95 28 -3 27 -3 3 -92z m72 -9 c0 -83 0 -84 -25 -84
-25 0 -25 1 -25 89 l0 88 25 -5 c24 -4 25 -7 25 -88z m1410 11 l0 -85 -30 0
-30 0 0 79 c0 81 4 88 43 90 15 1 17 -9 17 -84z m-80 -5 c0 -79 0 -80 -25 -80
-24 0 -25 2 -25 70 0 71 4 78 48 89 1 1 2 -35 2 -79z m-6452 -812 l-3 -712
-285 -71 c-157 -39 -297 -74 -312 -78 l-28 -7 0 790 0 790 315 0 315 0 -2
-712z m572 73 l0 -639 -32 -11 c-18 -5 -136 -35 -263 -66 -126 -31 -238 -59
-247 -61 -17 -5 -18 33 -18 705 l0 711 280 0 280 0 0 -639z m518 62 l-3 -577
-247 -61 -248 -61 0 638 0 638 250 0 250 0 -2 -577z m472 59 l0 -517 -225 -56
-225 -56 0 573 0 574 225 0 225 0 0 -518z m420 53 l0 -464 -37 -10 c-82 -22
-362 -91 -368 -91 -3 0 -5 232 -5 515 l0 515 205 0 205 0 0 -465z m375 45 l0
-415 -182 -46 -183 -47 0 464 0 464 183 -2 182 -3 0 -415z m335 50 c0 -203 0
-373 0 -377 1 -5 -287 -81 -312 -83 -5 0 -8 187 -8 415 l0 415 160 0 160 0 0
-370z m310 31 l0 -339 -137 -32 c-76 -18 -141 -35 -145 -37 -5 -2 -8 165 -8
371 l0 376 145 0 145 0 0 -339z m280 35 l0 -303 -129 -32 c-71 -17 -131 -31
-135 -31 -3 0 -6 151 -6 335 l0 335 135 0 135 0 0 -304z m240 31 l0 -274 -107
-26 c-60 -15 -111 -27 -115 -27 -5 0 -8 135 -8 300 l0 300 115 0 115 0 0 -273z
m230 28 l0 -244 -37 -10 c-95 -25 -161 -41 -167 -41 -3 0 -6 122 -6 270 l0
270 105 0 105 0 0 -245z m200 25 l0 -219 -37 -10 c-21 -5 -64 -16 -95 -24
l-58 -15 0 244 0 244 95 0 95 0 0 -220z m180 22 l0 -198 -85 -21 -85 -20 0
218 0 219 85 0 85 0 0 -198z m160 20 l0 -179 -52 -12 c-29 -6 -63 -14 -75 -17
l-23 -6 0 196 0 196 75 0 75 0 0 -178z m150 19 l0 -159 -65 -16 c-35 -9 -67
-16 -70 -16 -3 0 -5 79 -5 175 l0 175 70 0 70 0 0 -159z m130 16 l0 -144 -51
-11 c-28 -7 -55 -12 -60 -12 -5 0 -9 67 -9 155 l0 155 60 0 60 0 0 -143z m120
18 c0 -139 4 -132 -77 -150 l-33 -7 0 141 0 141 55 0 55 0 0 -125z m100 10 l0
-114 -37 -10 c-21 -6 -41 -11 -45 -11 -5 0 -8 56 -8 125 l0 125 45 0 45 0 0
-115z m100 10 c0 -58 -4 -105 -9 -105 -5 0 -23 -3 -40 -6 l-31 -6 0 111 0 111
40 0 40 0 0 -105z m88 16 c2 -46 -1 -87 -5 -92 -4 -4 -23 -10 -40 -14 l-33 -7
0 102 0 101 38 -3 37 -3 3 -84z m72 4 c0 -67 -3 -85 -14 -85 -8 0 -21 -3 -30
-6 -14 -5 -16 6 -16 85 l0 91 30 0 30 0 0 -85z m70 10 c0 -41 -4 -75 -9 -75
-5 0 -16 -3 -25 -6 -14 -5 -16 5 -16 75 0 80 0 81 25 81 24 0 25 -2 25 -75z
m1330 -5 c0 -78 0 -79 -22 -71 -21 7 -23 16 -26 80 -3 70 -3 71 23 71 25 0 25
-1 25 -80z m80 -5 c0 -88 -4 -95 -44 -79 -13 5 -16 22 -16 85 l0 79 30 0 30 0
0 -85z m90 -10 c0 -103 -1 -104 -57 -89 -22 6 -23 11 -23 95 l0 89 40 0 40 0
0 -95z m90 -16 c0 -106 -1 -110 -20 -105 -11 3 -29 9 -40 12 -18 5 -20 14 -20
105 l0 99 40 0 40 0 0 -111z m110 -13 l0 -123 -45 10 -45 10 0 114 0 113 45 0
45 0 0 -124z m120 -16 c0 -107 -3 -138 -12 -135 -7 2 -32 9 -55 15 l-43 11 0
124 0 125 55 0 55 0 0 -140z m130 -16 c0 -143 -1 -155 -17 -150 -10 3 -37 10
-60 16 l-43 11 0 139 0 140 60 0 60 0 0 -156z m150 -14 c0 -192 6 -180 -85
-157 l-50 13 -3 157 -3 157 71 0 70 0 0 -170z m160 -24 l0 -194 -32 8 c-18 5
-52 14 -75 20 l-43 11 0 174 0 175 75 0 75 0 0 -194z m180 -21 c0 -118 -3
-215 -7 -215 -5 0 -24 4 -43 9 -19 6 -54 15 -77 21 l-43 11 0 194 0 195 85 0
85 0 0 -215z m200 -26 l0 -241 -22 6 c-13 3 -56 13 -95 23 l-73 17 0 218 0
218 95 0 95 0 0 -241z m220 -28 l0 -269 -102 26 -103 27 -3 243 -2 242 105 0
105 0 0 -269z m250 -31 l0 -300 -22 5 c-13 3 -63 16 -113 29 l-90 22 -3 272
-2 272 115 0 115 0 0 -300z m280 -28 c0 -181 -2 -331 -5 -334 -3 -3 -63 9
-133 26 l-127 32 -3 302 -2 302 135 0 135 0 0 -328z m300 -42 c0 -289 -3 -370
-12 -370 -7 0 -71 15 -143 33 l-130 33 -3 337 -2 337 145 0 145 0 0 -370z
m340 -46 c0 -391 -1 -415 -17 -410 -10 3 -65 17 -123 31 -58 14 -122 30 -142
36 l-38 10 -2 374 -3 375 163 0 162 0 0 -416z m380 -44 c0 -361 -3 -460 -12
-460 -7 0 -89 20 -183 43 l-170 43 -3 417 -2 417 185 0 185 0 0 -460z m420
-56 c0 -486 -1 -515 -17 -510 -10 3 -102 26 -205 52 l-188 46 0 464 0 464 205
0 205 0 0 -516z m460 -54 c0 -449 -3 -570 -12 -570 -7 0 -107 24 -223 53
l-210 53 -3 517 -2 517 225 0 225 0 0 -570z m520 -68 l0 -638 -222 56 c-123
31 -235 60 -250 64 l-28 6 0 575 0 575 250 0 250 0 0 -638z m580 -73 c0 -672
-1 -710 -17 -705 -10 3 -119 30 -243 61 -124 31 -242 60 -262 66 l-38 10 0
639 0 640 280 0 280 0 0 -711z m640 -79 l0 -790 -27 7 c-16 3 -156 39 -313 78
l-285 71 -3 712 -2 712 315 0 315 0 0 -790z m-7046 483 c-30 -22 -34 -15 -34
61 0 70 1 75 23 78 21 3 22 -1 25 -62 2 -52 0 -67 -14 -77z m1330 141 c13 -5
16 -22 16 -86 l0 -80 -22 14 c-20 13 -23 26 -26 87 -3 70 0 77 32 65z m-1384
-92 c0 -75 -1 -79 -25 -90 -14 -7 -28 -12 -30 -12 -3 0 -5 38 -5 84 0 91 -3
84 53 95 4 0 7 -34 7 -77z m1464 72 c13 -5 16 -23 16 -90 0 -46 -2 -84 -5 -84
-2 0 -16 5 -30 12 -24 11 -25 15 -25 90 0 81 4 87 44 72z m-1534 -99 c0 -83 0
-85 -30 -100 -49 -25 -51 -22 -48 77 3 89 4 92 28 99 50 14 50 14 50 -76z
m1618 79 c21 -6 22 -11 22 -105 l0 -99 -40 20 -40 20 0 85 c0 92 2 94 58 79z
m-1708 -112 l0 -98 -35 -17 c-20 -9 -38 -17 -40 -17 -3 0 -5 47 -5 105 l0 104
33 10 c17 5 35 10 40 10 4 1 7 -43 7 -97z m1789 92 l31 -6 0 -113 0 -113 -40
21 -40 22 0 98 c0 53 4 97 9 97 5 0 23 -3 40 -6z m-1889 -127 l0 -113 -45 -22
-46 -22 3 122 3 121 40 13 c22 6 41 12 43 13 1 1 2 -50 2 -112z m1991 101 l39
-11 0 -123 0 -123 -42 19 -43 19 -3 115 c-1 64 0 116 4 116 4 0 24 -5 45 -12z
m-2091 -141 l0 -123 -55 -27 -56 -27 3 137 3 137 45 12 c25 7 48 12 53 13 4 1
7 -54 7 -122z m2206 112 l44 -11 0 -139 0 -139 -55 27 -55 27 0 123 c0 80 4
123 11 123 5 0 30 -5 55 -11z m-2326 -157 l0 -138 -55 -27 c-31 -15 -58 -27
-60 -27 -3 0 -4 68 -3 152 l3 151 45 12 c25 7 51 13 58 14 9 1 12 -33 12 -137z
m2449 126 l51 -11 0 -154 c0 -84 -2 -153 -5 -153 -2 0 -29 12 -60 27 l-55 27
0 138 c0 78 4 138 9 138 5 0 32 -5 60 -12z m-1899 -80 c-1 -66 -3 -75 -25 -91
l-25 -18 0 80 c0 66 3 82 18 90 30 18 32 13 32 -61z m1311 62 c16 -9 19 -22
19 -91 l0 -80 -25 18 c-22 16 -24 25 -25 91 0 39 3 72 6 72 3 0 14 -5 25 -10z
m724 -16 l65 -16 0 -169 c0 -129 -3 -169 -12 -168 -7 0 -38 12 -68 27 l-55 27
-3 158 c-1 86 0 157 3 157 3 0 35 -7 70 -16z m-2715 -144 l0 -150 -60 -30
c-33 -16 -64 -30 -70 -30 -7 0 -10 55 -8 167 l3 166 40 13 c22 6 52 12 68 13
l27 1 0 -150z m610 57 c0 -81 -1 -84 -30 -105 l-30 -23 0 90 c0 88 1 91 28
105 15 8 28 15 30 16 1 0 2 -37 2 -83z m1480 -39 l0 -89 -30 23 c-29 21 -30
24 -30 105 l0 84 30 -18 c30 -17 30 -18 30 -105z m-2240 -71 l0 -173 -75 -37
-75 -37 2 192 3 192 65 17 c36 10 68 18 73 18 4 1 7 -77 7 -172z m3025 157
l65 -16 0 -194 0 -194 -75 37 -75 37 0 173 c0 114 4 173 10 173 6 0 40 -7 75
-16z m-2335 -93 l0 -89 -34 -26 c-19 -14 -37 -26 -40 -26 -3 0 -6 44 -6 98 l0
98 33 17 c17 8 35 16 40 16 4 1 7 -39 7 -88z m1606 68 l34 -21 0 -94 c0 -52
-3 -94 -6 -94 -3 0 -21 12 -40 26 l-34 26 0 89 c0 49 3 89 6 89 4 0 22 -9 40
-21z m-2456 -192 l0 -193 -85 -42 -85 -42 0 215 0 215 28 6 c15 4 50 12 77 20
28 7 53 13 58 13 4 1 7 -86 7 -192z m3355 175 l70 -18 3 -217 2 -217 -85 42
-85 42 0 193 c0 148 3 193 13 193 6 0 44 -9 82 -18z m-2595 -106 l0 -103 -40
-27 -40 -26 0 110 0 110 38 19 c20 11 38 20 40 21 1 0 2 -47 2 -104z m1790 79
l30 -16 0 -109 0 -110 -40 26 -40 27 0 98 c0 63 4 99 10 99 6 0 24 -7 40 -15z
m1010 -25 l65 -17 3 -242 c1 -134 -1 -241 -5 -239 -5 2 -47 23 -95 48 l-88 44
0 218 0 218 28 -6 c15 -4 56 -14 92 -24z m-3740 -193 l0 -212 -95 -48 -95 -47
0 239 0 239 73 20 c39 11 82 21 95 21 l22 1 0 -213z m803 -64 c-21 -18 -41
-32 -45 -33 -5 0 -8 55 -8 123 l0 123 43 21 42 20 3 -111 3 -110 -38 -33z
m345 88 l-23 -26 26 23 c22 19 37 22 108 22 l82 0 -18 -25 c-17 -24 -22 -25
-108 -22 l-90 2 -3 80 c-3 73 -1 81 20 97 l23 17 3 -71 c3 -62 0 -74 -20 -97z
m1350 55 l-3 -81 -69 -3 c-60 -3 -72 0 -92 19 -24 23 -35 14 -12 -9 10 -10 -3
-12 -66 -10 -68 3 -81 6 -93 25 l-15 22 148 0 c139 0 150 -1 174 -22 l25 -22
-22 26 c-19 21 -23 37 -23 97 l0 72 25 -16 c25 -16 26 -21 23 -98z m372 -53
c0 -68 -3 -123 -6 -123 -3 0 -23 14 -45 32 l-39 31 0 114 0 113 45 -22 45 -22
0 -123z m1033 128 c39 -10 84 -22 100 -25 l27 -6 0 -270 0 -270 -105 52 -105
53 0 242 c0 134 2 243 5 243 3 0 38 -8 78 -19z m-4103 -229 l0 -237 -105 -53
-105 -52 0 268 0 268 83 21 c45 11 92 21 105 22 l22 1 0 -238z m940 90 l0
-128 -50 -37 c-27 -20 -52 -37 -55 -37 -3 0 -5 62 -5 138 l0 138 53 26 c28 15
53 27 55 27 1 1 2 -57 2 -127z m339 -58 c-13 -13 -26 -24 -31 -24 -4 0 -8 37
-8 82 0 78 2 83 28 104 l27 22 3 -80 c3 -72 0 -83 -19 -104z m1501 59 c0 -46
-3 -83 -7 -83 -4 0 -17 10 -30 22 -20 19 -23 31 -23 105 l0 84 30 -23 c29 -21
30 -24 30 -105z m365 94 l40 -23 3 -137 c1 -75 0 -137 -3 -137 -3 0 -28 17
-55 37 l-50 37 0 123 c0 137 0 137 65 100z m-3375 -267 l0 -270 -110 -55 c-60
-30 -112 -55 -115 -55 -3 0 -4 134 -3 297 l3 297 105 27 c58 15 108 28 113 28
4 1 7 -120 7 -269z m4603 243 l107 -27 0 -298 c0 -164 -3 -298 -7 -297 -5 0
-55 24 -113 53 l-105 52 -3 272 c-1 150 1 272 5 272 5 0 56 -12 116 -27z
m-3553 -146 l0 -143 -47 -35 c-27 -19 -54 -38 -60 -42 -10 -6 -13 25 -13 147
l0 156 58 29 c31 17 58 30 60 31 1 0 2 -64 2 -143z m410 58 c0 -80 -2 -86 -31
-120 -17 -19 -35 -35 -40 -35 -5 0 -9 42 -9 93 0 92 0 92 32 119 18 15 36 28
41 28 4 0 7 -38 7 -85z m1606 59 l34 -26 0 -94 c0 -52 -4 -94 -9 -94 -5 0 -23
16 -40 35 -29 34 -31 40 -31 120 0 47 3 85 6 85 3 0 21 -12 40 -26z m434 -9
l50 -25 0 -156 c0 -126 -2 -153 -13 -147 -7 4 -34 23 -60 42 l-47 34 0 139 c0
88 4 138 10 138 6 0 33 -11 60 -25z m-3740 -301 l0 -294 -130 -65 c-71 -36
-132 -65 -135 -65 -3 0 -4 149 -3 332 l3 332 125 31 c69 18 128 30 133 28 4
-2 7 -137 7 -299z m5120 268 l105 -27 3 -332 c1 -183 -1 -333 -5 -332 -5 0
-64 28 -133 62 l-125 63 -3 303 -2 303 27 -6 c16 -4 75 -19 133 -34z m-2962 3
c-11 -24 -16 -25 -90 -25 l-78 0 16 25 c15 23 22 25 90 25 l74 0 -12 -25z
m170 3 c-3 -21 -9 -23 -85 -26 l-83 -3 12 26 c11 23 16 25 85 25 71 0 74 -1
71 -22z m162 -3 c0 -24 -2 -25 -75 -25 -66 0 -75 2 -75 18 0 29 8 32 82 32 66
0 68 -1 68 -25z m164 9 c12 -31 5 -34 -69 -34 -73 0 -75 1 -75 25 0 24 2 25
69 25 54 0 70 -4 75 -16z m166 -3 c5 -11 10 -22 10 -25 0 -3 -36 -6 -80 -6
-79 0 -80 0 -80 25 0 24 2 25 70 25 58 0 71 -3 80 -19z m-1247 -245 l-38 -41
40 38 41 37 107 0 c59 0 107 -3 107 -6 0 -3 -12 -21 -26 -40 l-27 -35 -121 3
-121 3 -3 110 -3 110 38 32 38 32 3 -101 3 -101 -38 -41z m1855 70 l-3 -111
-106 -3 -106 -3 -27 35 c-14 19 -26 37 -26 40 0 3 41 6 92 6 l92 0 41 -37 40
-38 -37 40 -38 41 0 103 0 103 40 -32 41 -32 -3 -112z m-2270 7 l-3 -156 -60
-48 c-33 -26 -63 -48 -68 -48 -4 -1 -6 77 -5 172 l3 172 60 32 c33 18 63 33
68 33 4 0 6 -71 5 -157z m2717 123 l60 -33 3 -172 c1 -104 -1 -171 -7 -169 -5
1 -37 24 -70 50 l-61 48 0 155 c0 85 3 155 8 155 4 0 34 -15 67 -34z m-4155
-331 l0 -335 -140 -70 c-77 -38 -142 -70 -145 -70 -3 0 -5 166 -5 369 l0 369
138 35 c75 19 140 36 145 36 4 1 7 -150 7 -334z m5633 309 c56 -14 119 -30
140 -35 l37 -10 0 -369 c0 -204 -3 -370 -7 -369 -5 0 -69 31 -143 68 l-135 67
-3 337 c-1 185 0 337 4 337 3 0 51 -11 107 -26z m-3403 9 c-1 -5 -9 -18 -19
-30 -18 -21 -28 -23 -117 -23 l-98 0 29 30 c28 29 32 30 117 30 48 0 88 -3 88
-7z m180 2 c0 -2 -5 -16 -12 -30 -11 -24 -15 -25 -100 -25 l-89 0 21 30 c21
29 24 30 101 30 43 0 79 -2 79 -5z m181 -22 c-7 -28 -8 -28 -100 -31 l-92 -3
16 31 c15 30 16 30 99 30 l84 0 -7 -27z m179 -3 l0 -30 -85 0 c-88 0 -95 4
-79 44 5 13 22 16 85 16 l79 0 0 -30z m180 23 c0 -5 3 -18 6 -30 6 -23 5 -23
-80 -23 l-86 0 0 30 0 30 80 0 c44 0 80 -3 80 -7z m184 -10 c3 -10 9 -24 12
-31 5 -10 -13 -12 -82 -10 -86 3 -88 3 -95 31 l-7 27 83 0 c70 0 84 -3 89 -17z
m186 -13 l21 -30 -84 0 c-85 0 -97 4 -110 43 -6 15 2 17 73 17 76 0 79 -1 100
-30z m175 0 l29 -30 -81 0 c-64 0 -83 4 -95 18 -35 40 -32 42 45 42 68 0 75
-2 102 -30z m-2205 -178 l0 -178 -67 -50 c-38 -27 -71 -50 -75 -52 -5 -2 -8
83 -8 190 l0 194 73 36 c39 20 73 37 75 37 1 1 2 -79 2 -177z m463 -84 c-20
-21 -41 -38 -45 -38 -4 0 -8 54 -8 119 l0 119 43 32 42 31 3 -112 3 -112 -38
-39z m2035 224 l32 -24 0 -119 c0 -66 -3 -119 -7 -119 -4 0 -24 17 -45 37
l-38 37 0 114 c0 123 -3 119 58 74z m527 -5 l60 -32 3 -193 c1 -107 -1 -192
-5 -190 -5 1 -38 25 -75 52 l-68 50 0 173 c0 132 3 173 13 173 6 0 39 -15 72
-33z m1835 -484 c0 -227 -3 -413 -7 -412 -5 0 -77 35 -161 77 l-153 77 1 373
c0 204 0 373 0 375 0 1 72 -15 160 -38 l160 -40 0 -412z m-6458 116 l3 -371
-157 -79 c-87 -44 -160 -79 -163 -79 -3 0 -4 185 -3 412 l3 412 145 37 c80 20
151 38 157 38 10 1 13 -85 15 -370z m2482 359 c-41 -68 -40 -68 -151 -68 -57
0 -103 4 -103 9 0 5 16 23 35 40 35 30 39 31 131 31 73 0 93 -3 88 -12z m196
2 c0 -6 -7 -24 -15 -40 l-16 -30 -94 0 c-52 0 -95 3 -95 7 0 3 11 21 26 40 25
33 25 33 110 33 52 0 84 -4 84 -10z m200 -7 c0 -10 -3 -28 -6 -40 -6 -22 -11
-23 -105 -23 -55 0 -99 3 -99 8 0 4 9 22 20 40 l20 32 85 0 c74 0 85 -2 85
-17z m200 -23 l0 -40 -95 0 c-89 0 -95 1 -95 21 0 51 15 59 105 59 l85 0 0
-40z m200 14 c20 -52 17 -54 -85 -54 l-95 0 0 40 0 40 85 0 c83 0 86 -1 95
-26z m205 -10 c8 -20 15 -38 15 -40 0 -2 -43 -4 -95 -4 -68 0 -97 4 -99 13 -3
6 -7 24 -10 40 l-6 27 90 0 90 0 15 -36z m199 3 c15 -19 26 -37 26 -40 0 -4
-43 -7 -96 -7 l-95 0 -15 35 c-7 19 -14 37 -14 40 0 3 38 5 84 5 85 0 85 0
110 -33z m191 2 c19 -17 35 -35 35 -40 0 -5 -40 -9 -88 -9 -86 0 -89 1 -110
30 -12 16 -22 34 -22 40 0 6 30 10 75 10 69 0 77 -2 110 -31z m-2435 -207 l0
-198 -52 -39 c-29 -21 -68 -49 -85 -63 l-33 -24 0 219 0 219 83 41 c45 23 83
42 85 42 1 1 2 -88 2 -197z m560 76 l0 -122 -47 -48 c-26 -26 -51 -48 -55 -48
-4 0 -8 60 -8 134 l0 134 48 36 c26 19 50 36 55 36 4 0 7 -55 7 -122z m2201
86 l49 -36 0 -134 c0 -74 -3 -134 -7 -134 -4 0 -29 21 -55 47 l-48 47 0 123
c0 68 3 123 6 123 4 0 28 -16 55 -36z m590 -9 c38 -20 72 -41 75 -48 2 -7 3
-105 2 -219 l-3 -206 -82 61 -83 61 0 193 c0 125 4 193 10 193 6 0 42 -16 81
-35z m-5121 -416 l-1 -409 -179 -90 c-99 -50 -182 -90 -185 -90 -3 0 -5 206
-5 459 l0 459 178 44 c97 25 180 43 185 41 4 -3 7 -189 7 -414z m6953 385 c78
-19 159 -39 180 -45 l37 -10 0 -459 c0 -253 -3 -460 -7 -459 -5 0 -87 40 -183
88 l-175 88 -3 416 c-1 229 0 417 3 417 3 0 70 -16 148 -36z m-3983 21 c0 -2
-8 -20 -17 -40 l-17 -35 -108 0 c-59 0 -108 3 -108 6 0 3 12 21 26 40 l26 34
99 0 c55 0 99 -2 99 -5z m220 -4 c0 -5 -3 -23 -6 -40 l-6 -31 -114 0 -114 0
20 40 20 40 100 0 c55 0 100 -4 100 -9z m220 -31 l0 -40 -111 0 c-110 0 -110
0 -104 23 4 12 9 30 11 40 5 15 19 17 105 17 l99 0 0 -40z m228 0 l10 -40
-112 0 -112 0 4 40 4 40 98 0 98 0 10 -40z m222 0 l20 -40 -109 0 c-105 0
-110 1 -116 23 -18 62 -25 57 84 57 l101 0 20 -40z m224 6 c14 -19 26 -37 26
-40 0 -3 -49 -6 -108 -6 l-108 0 -17 35 c-9 20 -17 38 -17 40 0 3 44 5 99 5
l99 0 26 -34z m-2494 -226 l0 -219 -82 -62 c-46 -34 -89 -67 -95 -72 -10 -7
-13 41 -13 235 l0 243 93 47 c50 26 93 47 95 47 1 1 2 -98 2 -219z m620 83 l0
-137 -52 -53 c-29 -29 -56 -53 -60 -53 -4 0 -8 67 -8 150 l0 149 53 40 c28 23
55 41 60 41 4 0 7 -62 7 -137z m2447 97 l53 -41 0 -149 c0 -83 -3 -150 -7
-150 -4 0 -31 23 -60 52 l-53 52 0 138 c0 76 3 138 7 138 3 0 30 -18 60 -40z
m654 -10 c44 -23 82 -46 85 -53 2 -7 3 -117 2 -244 l-3 -232 -92 70 -93 70 0
214 c0 140 4 215 10 215 6 0 47 -18 91 -40z m2087 -46 l192 -48 0 -513 c0
-282 -2 -513 -5 -513 -3 0 -95 45 -205 100 l-200 100 0 466 c0 368 3 465 13
461 6 -3 99 -27 205 -53z m-7778 -414 l0 -460 -200 -100 c-110 -55 -202 -100
-205 -100 -3 0 -4 231 -3 512 l3 513 185 47 c102 25 193 47 203 47 16 1 17
-27 17 -459z m3028 405 l-33 -44 -135 -1 -134 0 44 45 44 45 123 0 124 0 -33
-45z m272 40 c0 -3 -9 -24 -20 -45 l-20 -40 -126 0 -125 0 33 45 33 44 113 1
c61 0 112 -2 112 -5z m246 -12 c-3 -10 -8 -30 -12 -45 l-6 -28 -124 0 c-68 0
-124 2 -124 5 0 3 9 24 20 45 l20 40 116 0 c105 0 115 -2 110 -17z m244 -28
l0 -45 -124 0 -124 0 9 38 c5 20 9 40 9 45 0 4 52 7 115 7 l115 0 0 -45z m244
37 c2 -4 7 -24 11 -45 l7 -37 -126 0 -126 0 0 45 0 45 114 0 c63 0 117 -3 120
-8z m256 -32 c11 -21 20 -42 20 -45 0 -8 -238 -6 -244 3 -2 4 -7 24 -11 45
l-7 37 111 0 111 0 20 -40z m258 -5 l33 -45 -125 0 -126 0 -20 40 c-11 21 -20
42 -20 45 0 3 51 5 113 5 l112 -1 33 -44z m242 0 l44 -45 -120 0 -121 0 -32
45 -32 45 108 0 109 0 44 -45z m-2330 -141 l0 -156 -62 -64 c-33 -35 -65 -64
-70 -64 -4 0 -8 76 -8 169 l0 169 68 51 c37 28 68 51 70 51 1 0 2 -70 2 -156z
m2748 78 l32 -24 0 -169 c0 -93 -4 -169 -8 -169 -5 0 -37 29 -70 64 l-62 64 0
157 0 157 38 -28 c20 -15 52 -39 70 -52z m-3438 -182 l0 -239 -100 -76 c-54
-41 -102 -75 -105 -75 -3 0 -5 120 -5 268 l0 267 93 47 c50 26 98 47 105 47 9
1 12 -53 12 -239z m4135 193 l95 -48 0 -267 c0 -148 -2 -268 -5 -268 -3 0 -51
34 -105 75 l-100 76 0 239 c0 151 4 240 10 240 5 0 53 -21 105 -47z m-6325
-508 l0 -515 -220 -110 c-121 -60 -222 -110 -225 -110 -3 0 -5 256 -5 569 l0
569 63 16 c89 24 371 94 380 95 4 1 7 -231 7 -514z m8615 465 c110 -28 208
-53 218 -56 16 -5 17 -41 17 -577 l0 -573 -222 112 -223 111 -3 517 c-1 284 1
516 6 516 4 0 98 -23 207 -50z m-5217 32 c-1 -4 -19 -29 -38 -54 l-35 -47
-142 -1 c-79 0 -143 3 -143 7 0 4 21 29 47 55 l47 48 134 0 c73 0 132 -3 130
-8z m272 3 c0 -3 -11 -28 -25 -55 l-25 -50 -140 0 -141 0 42 55 41 55 124 0
c68 0 124 -2 124 -5z m270 -6 c0 -5 -5 -30 -11 -55 l-11 -44 -139 0 c-77 0
-139 2 -139 5 0 3 11 28 25 55 l25 50 125 0 c81 0 125 -4 125 -11z m270 -44
l0 -55 -141 0 c-125 0 -140 2 -135 16 3 9 9 28 12 42 3 15 7 33 10 40 2 9 37
12 129 12 l125 0 0 -55z m279 5 c6 -28 11 -53 11 -56 0 -2 -62 -3 -137 -2
l-138 3 -3 39 c-6 66 -6 66 132 66 l124 0 11 -50z m276 0 c14 -27 25 -52 25
-55 0 -3 -62 -4 -137 -3 -153 3 -135 -6 -157 81 l-6 27 125 0 125 0 25 -50z
m279 1 c20 -27 36 -51 36 -55 0 -3 -61 -6 -135 -6 l-135 0 -25 50 c-14 27 -25
52 -25 55 0 3 56 5 124 5 l124 0 36 -49z m268 2 c26 -26 48 -51 48 -55 0 -4
-58 -8 -128 -8 l-128 0 -37 50 c-20 27 -37 52 -37 55 0 3 53 5 117 5 l117 0
48 -47z m-2649 -415 c-37 -37 -71 -68 -75 -68 -5 0 -8 85 -8 189 l0 189 73 54
72 55 3 -176 2 -175 -67 -68z m3157 121 c0 -104 -3 -189 -7 -189 -4 0 -38 30
-75 67 l-68 67 0 178 0 178 75 -56 75 -56 0 -189z m-3860 9 l-1 -273 -101 -75
c-55 -41 -107 -79 -114 -83 -12 -7 -14 43 -14 292 l0 301 108 54 c59 30 110
55 115 55 4 1 7 -122 7 -271z m4600 217 l110 -55 0 -301 c0 -249 -2 -299 -14
-292 -7 4 -59 42 -114 83 l-101 75 -1 273 c0 149 2 272 5 272 3 0 55 -25 115
-55z m2783 -109 l27 -6 0 -638 0 -638 -250 125 -250 126 0 576 0 575 223 -56
c122 -31 234 -60 250 -64z m-9813 -459 l0 -572 -245 -123 c-135 -67 -247 -122
-250 -122 -3 0 -5 286 -5 635 l0 635 28 7 c15 3 119 30 232 59 113 29 213 53
223 53 16 1 17 -33 17 -572z m3773 550 c-4 -7 -23 -34 -42 -60 l-34 -47 -159
0 c-87 0 -158 3 -158 7 0 4 23 31 52 60 l52 53 149 0 c120 0 146 -3 140 -13z
m307 8 c0 -2 -12 -29 -27 -60 l-27 -55 -153 0 c-84 0 -153 2 -153 5 0 3 19 30
41 60 l41 55 139 0 c77 0 139 -2 139 -5z m295 -31 c-16 -89 -5 -84 -180 -84
l-155 0 30 60 30 60 141 0 141 0 -7 -36z m305 -24 l0 -60 -155 0 c-85 0 -155
3 -155 8 0 7 18 76 25 100 3 9 41 12 145 12 l140 0 0 -60z m308 9 c7 -28 12
-55 12 -60 0 -5 -67 -9 -155 -9 l-155 0 0 53 c0 30 3 57 7 60 3 4 68 7 143 7
l137 0 11 -51z m312 -9 l30 -60 -154 0 -155 0 -11 43 c-6 23 -13 50 -16 60 -5
16 6 17 135 17 l141 0 30 -60z m309 5 c22 -30 41 -57 41 -60 0 -3 -69 -5 -153
-5 l-153 0 -27 55 c-15 31 -27 58 -27 60 0 3 62 5 139 5 l139 0 41 -55z m298
3 c29 -29 53 -56 53 -60 0 -4 -65 -8 -144 -8 l-144 0 -41 55 c-22 30 -41 57
-41 60 0 3 59 5 132 5 l132 0 53 -52z m-2867 -190 l0 -193 -77 -77 c-43 -43
-81 -78 -85 -78 -5 0 -8 96 -8 213 l1 212 77 57 c42 32 80 58 85 58 4 0 7 -87
7 -192z m3351 135 l78 -58 1 -212 c0 -117 -3 -213 -7 -213 -4 0 -43 35 -85 77
l-78 78 0 192 c0 106 3 193 6 193 4 0 42 -26 85 -57z m-4203 -255 l-3 -303
-120 -92 c-66 -51 -126 -92 -132 -92 -10 -1 -13 71 -13 329 l0 330 128 64 c70
36 130 65 135 65 4 1 6 -135 5 -301z m5101 237 l131 -65 0 -330 c0 -258 -3
-330 -12 -329 -7 0 -67 41 -133 92 l-120 92 -3 303 c-1 166 0 302 2 302 2 0
63 -29 135 -65z m-7809 -633 l0 -637 -275 -138 c-151 -75 -277 -137 -280 -137
-3 0 -4 318 -3 708 l3 707 260 67 c143 36 268 67 278 67 16 1 17 -36 17 -637z
m10668 571 l272 -67 0 -708 c0 -389 -2 -708 -5 -708 -3 0 -129 62 -280 137
l-275 138 0 637 c0 351 3 638 8 638 4 0 130 -30 280 -67z m-6470 48 c-1 -5
-24 -37 -50 -70 l-48 -61 -175 0 c-96 0 -175 4 -175 8 0 5 29 37 64 70 l64 62
162 0 c93 0 160 -4 158 -9z m332 -1 c0 -6 -14 -37 -30 -70 l-30 -60 -171 0
c-195 0 -188 -5 -117 86 l43 54 152 0 c98 0 153 -4 153 -10z m333 -22 c-3 -18
-12 -49 -18 -68 l-12 -35 -171 -3 c-95 -1 -172 0 -172 3 0 2 14 34 32 70 l32
65 158 0 158 0 -7 -32z m335 -35 l-3 -68 -160 -3 c-87 -1 -165 0 -171 2 -10 4
-9 18 3 63 8 32 17 61 20 66 2 4 74 7 159 7 l155 0 -3 -67z m346 2 c9 -35 16
-67 16 -70 0 -3 -78 -4 -172 -3 l-173 3 -3 54 c-2 29 -1 60 2 67 4 11 38 14
159 14 l155 0 16 -65z m344 0 c18 -36 32 -68 32 -70 0 -3 -77 -4 -172 -3
l-172 3 -13 50 c-23 91 -33 85 140 85 l153 0 32 -65z m343 3 c24 -35 46 -66
47 -70 2 -5 -73 -8 -167 -8 l-171 0 -30 60 c-16 33 -30 64 -30 70 0 6 55 10
153 10 l153 0 45 -62z m335 0 c35 -33 64 -65 64 -70 0 -4 -73 -8 -163 -8
l-163 0 -47 64 c-26 35 -47 67 -47 70 0 3 66 6 146 6 l146 0 64 -62z m-3278
-518 l-93 -95 95 93 95 92 223 0 c122 0 222 -2 222 -5 0 -3 -30 -46 -67 -95
l-68 -90 -250 2 -250 3 -2 245 -3 245 93 68 92 68 3 -218 2 -217 -92 -96z
m3820 455 l82 -60 -3 -245 -2 -245 -240 -2 -240 -3 -67 93 -67 92 212 3 211 2
96 -92 95 -93 -92 95 -93 95 0 218 c0 180 2 217 13 210 8 -4 51 -35 95 -68z
m-4679 -282 l0 -338 -145 -107 -144 -107 0 375 0 374 138 69 c75 39 140 70
145 70 4 1 7 -151 6 -336z m5672 266 l139 -70 0 -374 0 -374 -144 107 -145
107 0 338 c-1 185 2 337 5 337 3 0 68 -32 145 -71z m-8671 -699 l0 -710 -310
-155 c-170 -85 -312 -155 -315 -155 -3 0 -4 354 -3 788 l3 787 300 77 c165 42
306 77 313 77 9 1 12 -147 12 -709z m11836 634 c164 -42 302 -78 306 -81 10
-6 10 -1573 1 -1572 -5 0 -145 69 -313 153 l-305 153 -3 711 c-1 392 2 712 6
712 5 0 143 -34 308 -76z m-7185 39 c-6 -10 -30 -44 -56 -75 l-45 -58 -195 0
c-107 0 -195 3 -195 7 0 4 30 38 67 75 l67 68 184 0 c171 0 182 -1 173 -17z
m379 12 c0 -3 -16 -37 -35 -75 l-35 -70 -196 0 c-156 0 -194 3 -187 13 5 6 31
40 57 75 l47 62 175 0 c96 0 174 -2 174 -5z m366 -17 c-3 -13 -11 -47 -17 -75
l-12 -53 -194 0 c-106 0 -193 2 -193 5 0 3 16 37 35 75 l35 70 176 0 176 0 -6
-22z m374 -53 l0 -75 -196 0 c-181 0 -195 1 -190 18 3 9 10 37 16 62 6 25 13
51 15 58 3 9 48 12 180 12 l175 0 0 -75z m379 23 c6 -29 14 -63 17 -75 l6 -23
-196 0 -196 0 0 75 0 75 178 0 179 0 12 -52z m386 -18 c19 -38 35 -72 35 -75
0 -3 -87 -4 -192 -3 l-193 3 -12 50 c-7 28 -15 60 -18 73 l-5 22 175 0 175 0
35 -70z m383 0 c28 -38 52 -72 52 -75 0 -3 -85 -5 -190 -5 l-190 0 -35 70
c-19 38 -35 72 -35 75 0 3 78 5 173 5 l173 0 52 -70z m374 3 c38 -37 68 -71
68 -75 0 -5 -82 -8 -183 -8 l-183 0 -52 70 c-28 38 -52 72 -52 75 0 3 75 5
167 5 l167 0 68 -67z m-3644 -573 l-103 -105 105 103 105 102 248 0 c136 0
247 -2 247 -5 0 -3 -34 -51 -75 -106 l-76 -99 -277 2 -277 3 -3 271 -2 272
102 76 103 77 3 -243 2 -242 -102 -106z m4240 507 l92 -70 -2 -271 -3 -271
-266 -3 -267 -2 -76 102 -77 103 238 3 237 2 106 -102 105 -103 -102 105 -103
105 0 243 c0 192 3 242 13 236 6 -4 54 -39 105 -77z m-5198 -317 l1 -373 -157
-119 c-86 -65 -158 -118 -160 -118 -2 0 -4 187 -4 415 l0 415 158 79 c86 43
158 78 159 77 2 -1 3 -170 3 -376z m6460 -196 c0 -329 -3 -414 -12 -408 -7 4
-80 59 -163 121 l-150 113 3 375 2 375 160 -80 160 -80 0 -416z m-4616 474
c-4 -7 -32 -46 -63 -85 l-55 -73 -218 0 c-120 0 -218 3 -218 7 0 4 35 43 77
85 l78 78 203 0 c160 0 202 -3 196 -12z m416 7 c0 -3 -18 -41 -40 -85 l-40
-80 -215 0 c-118 0 -215 3 -215 6 0 3 27 41 60 85 l61 79 194 0 c107 0 195 -2
195 -5z m410 -2 c0 -5 -4 -24 -9 -43 -6 -19 -15 -54 -21 -77 l-11 -43 -214 0
c-118 0 -215 2 -215 5 0 3 18 41 40 85 l40 80 195 0 c107 0 195 -3 195 -7z
m410 -78 l0 -85 -215 0 c-169 0 -215 3 -215 13 0 12 26 119 35 145 3 9 52 12
200 12 l195 0 0 -85z m422 20 c9 -33 17 -70 17 -82 l1 -23 -215 0 -215 0 0 85
0 85 197 -2 198 -3 17 -60z m428 -15 c22 -44 40 -82 40 -85 0 -3 -97 -5 -215
-5 l-214 0 -11 43 c-6 23 -15 58 -21 77 -5 19 -9 38 -9 43 0 4 88 7 195 7
l195 0 40 -80z m405 28 c21 -29 49 -68 63 -85 l24 -33 -216 0 -216 0 -40 80
c-22 44 -40 82 -40 85 0 3 87 5 193 5 l193 0 39 -52z m437 -25 c43 -43 78 -81
78 -85 0 -5 -92 -8 -205 -8 l-204 0 -61 79 c-33 44 -60 82 -60 85 0 3 84 6
187 6 l188 0 77 -77z m-4049 -635 c-59 -59 -111 -108 -115 -108 -5 0 -8 133
-8 295 l0 295 113 84 112 85 3 -272 2 -271 -107 -108z m4715 558 l102 -77 0
-294 c0 -162 -3 -295 -7 -295 -4 0 -56 48 -115 107 l-108 108 0 274 c0 217 3
271 13 264 6 -6 58 -44 115 -87z m-5770 -352 l-3 -409 -175 -132 c-96 -73
-178 -133 -182 -133 -5 0 -8 207 -8 460 l0 460 178 89 c97 49 181 86 185 82 4
-4 6 -192 5 -417z m7172 -215 c0 -252 -3 -459 -7 -459 -5 0 -87 60 -183 133
l-175 132 -3 404 c-1 223 0 411 3 418 3 10 54 -11 185 -77 l180 -91 0 -460z
m-4670 536 c0 -3 -21 -46 -47 -95 l-47 -90 -238 0 c-131 0 -238 2 -238 5 0 3
30 46 67 95 l68 90 217 0 c120 0 218 -2 218 -5z m450 -12 c0 -9 -9 -52 -21
-95 l-21 -78 -244 0 -245 0 46 86 c25 47 47 90 51 95 3 5 102 9 220 9 194 0
214 -2 214 -17z m460 -78 l0 -95 -244 0 -245 0 25 91 c13 50 24 92 24 95 0 2
99 4 220 4 l220 0 0 -95z m456 68 c3 -16 14 -58 24 -95 l17 -68 -243 0 -244 0
0 95 0 95 220 0 220 0 6 -27z m489 -63 c25 -49 45 -92 45 -95 0 -3 -108 -5
-240 -5 l-239 0 -11 43 c-6 23 -15 58 -21 77 -19 75 -33 70 206 70 l215 0 45
-90z m466 8 c34 -46 67 -89 72 -95 7 -10 -40 -13 -232 -13 l-241 0 -45 90
c-25 49 -45 92 -45 95 0 3 97 5 215 5 l214 0 62 -82z m-3901 -285 l0 -296
-127 -129 c-70 -70 -131 -128 -135 -128 -4 0 -8 148 -8 330 l0 330 127 95 c69
52 130 95 135 95 4 0 8 -133 8 -297z m5110 197 l120 -91 0 -329 c0 -182 -4
-330 -8 -330 -4 0 -65 58 -135 128 l-127 129 0 297 c0 261 2 297 15 292 8 -3
69 -46 135 -96z m-6410 -384 l0 -464 -192 -144 c-106 -79 -199 -147 -205 -152
-10 -6 -13 99 -13 508 l0 516 198 99 c108 55 200 100 205 100 4 1 7 -208 7
-463z m7770 364 l200 -100 0 -516 c0 -409 -3 -514 -12 -508 -7 5 -100 73 -205
152 l-193 144 0 464 c0 255 2 464 5 464 3 0 95 -45 205 -100z m-4992 -17 c-2
-5 -26 -52 -53 -105 l-50 -98 -268 0 c-215 0 -266 3 -260 13 4 7 39 54 78 105
l70 92 243 0 c134 0 242 -3 240 -7z m501 -10 c0 -10 -10 -56 -23 -103 l-22
-85 -272 -3 -272 -2 46 92 c25 51 51 99 56 106 8 9 70 12 249 12 221 0 239 -1
238 -17z m511 -88 l0 -105 -270 0 c-148 0 -270 3 -270 6 0 6 16 72 41 167 l10
37 244 0 245 0 0 -105z m519 18 c12 -49 24 -96 27 -105 5 -17 -12 -18 -265
-18 l-271 0 0 105 0 105 244 0 244 0 21 -87z m531 -13 c27 -55 50 -102 50
-105 0 -3 -121 -5 -268 -5 l-268 0 -22 93 c-12 50 -22 98 -22 105 0 9 55 12
240 12 l240 0 50 -100z m525 0 c41 -54 75 -102 75 -105 0 -3 -119 -5 -265 -5
l-265 0 -50 100 c-27 55 -50 102 -50 105 0 3 108 5 240 5 l239 0 76 -100z
m-4487 -790 l-143 -145 145 143 146 142 341 -2 342 -3 -107 -143 -107 -142
-380 2 -380 3 -3 375 -2 375 142 107 143 107 3 -337 2 -336 -142 -146z m5845
685 l107 -79 -2 -376 -3 -375 -371 -3 -370 -2 -106 142 -106 143 331 3 331 2
146 -142 145 -143 -142 145 -143 145 0 338 0 339 38 -29 c21 -15 87 -64 145
-108z m-7143 -412 l-1 -518 -224 -168 -225 -167 0 575 0 575 218 109 c119 61
220 110 225 110 4 1 7 -232 7 -516z m8630 407 l220 -111 0 -575 0 -574 -225
167 -224 168 -1 518 c0 284 2 517 5 517 3 0 105 -50 225 -110z m-6119 -37 c-6
-10 -43 -61 -83 -113 l-73 -95 -310 -3 -310 -2 115 115 115 115 278 0 c262 0
277 -1 268 -17z m569 12 c0 -3 -25 -55 -55 -115 l-55 -110 -301 0 c-240 0
-299 3 -292 13 6 6 44 58 87 115 l77 102 269 0 c149 0 270 -2 270 -5z m548
-72 c-10 -43 -24 -95 -29 -115 l-10 -38 -299 0 c-165 0 -300 2 -300 5 0 3 25
55 55 115 l55 110 274 0 274 0 -20 -77z m582 -38 l0 -115 -300 0 c-233 0 -300
3 -300 13 0 6 12 58 26 115 l27 102 274 0 273 0 0 -115z m579 20 c13 -52 25
-104 28 -115 5 -20 1 -20 -296 -20 l-301 0 0 115 0 115 273 0 273 0 23 -95z
m589 -10 c28 -58 52 -110 52 -115 0 -7 -103 -9 -297 -8 l-297 3 -23 90 c-12
50 -25 100 -28 113 l-5 22 273 0 272 0 53 -105z m582 3 c41 -55 79 -107 83
-114 7 -12 -42 -14 -290 -14 l-298 0 -58 115 -57 115 273 0 272 -1 75 -101z
m590 -13 l115 -115 -297 0 -297 0 -77 103 c-43 56 -81 108 -87 115 -7 9 46 12
259 12 l269 0 115 -115z m-5420 -335 l1 -374 -158 -160 -158 -161 160 158 161
157 382 3 c210 1 382 1 382 -1 0 -1 -54 -75 -120 -162 l-121 -160 -422 2 -422
3 -3 417 -2 417 157 119 c87 66 159 119 160 118 2 -1 3 -170 3 -376z m6458
-278 l-3 -417 -415 -2 -415 -2 -117 158 c-65 87 -118 160 -118 162 0 2 167 3
372 2 l372 -3 161 -157 160 -158 -160 165 -160 165 3 373 2 372 160 -120 160
-121 -2 -417z m-8058 51 l0 -578 -250 -187 -250 -188 0 640 0 640 248 124
c136 69 248 125 250 125 1 1 2 -259 2 -576z m9840 -314 l0 -639 -250 187 -250
188 0 578 0 578 250 -126 250 -126 0 -640z m-7037 739 c-6 -7 -51 -68 -102
-135 l-92 -123 -334 0 c-184 0 -335 4 -335 8 0 4 58 65 128 135 l129 127 308
0 c244 0 305 -3 298 -12z m627 7 c0 -3 -29 -64 -65 -135 l-65 -130 -331 0
c-290 0 -330 2 -325 15 3 8 46 69 96 135 l91 120 299 0 c165 0 300 -2 300 -5z
m620 -12 c0 -10 -11 -58 -24 -108 -13 -49 -26 -102 -30 -117 l-6 -28 -335 0
c-184 0 -335 2 -335 5 0 3 29 64 65 135 l65 130 300 0 c279 0 300 -1 300 -17z
m625 -118 l0 -130 -332 -3 c-299 -2 -333 -1 -333 14 0 14 19 94 51 217 l10 37
302 -2 302 -3 0 -130z m647 25 c15 -58 30 -117 34 -132 l6 -28 -336 0 -336 0
0 135 0 135 303 -2 302 -3 27 -105z m655 -20 c35 -69 63 -128 63 -133 0 -4
-150 -6 -332 -5 l-333 3 -26 100 c-14 55 -29 115 -32 133 l-7 32 303 -2 302
-3 62 -125z m643 10 c50 -66 93 -127 96 -135 5 -13 -35 -15 -325 -15 l-332 0
-62 128 c-34 70 -63 130 -65 135 -2 4 132 7 297 7 l300 0 91 -120z m652 -7
c70 -70 128 -131 128 -135 0 -4 -146 -8 -325 -8 l-324 0 -91 120 c-50 66 -93
127 -96 135 -5 13 31 15 287 15 l292 0 129 -127z m-6002 -375 l0 -411 -177
-179 c-97 -98 -181 -178 -185 -178 -4 0 -8 206 -8 458 l0 457 177 133 c97 72
180 132 184 132 5 0 8 -185 9 -412z m6999 275 l171 -128 0 -457 c0 -252 -4
-458 -8 -458 -4 0 -88 80 -185 178 l-177 179 0 412 c1 348 3 412 15 407 7 -2
90 -62 184 -133z m-8789 -536 l0 -642 -267 -200 c-148 -109 -274 -203 -280
-208 -10 -8 -13 135 -13 702 l0 711 278 139 c152 77 278 140 280 140 1 1 2
-288 2 -642z m10940 -348 c0 -567 -3 -710 -12 -702 -7 5 -133 99 -280 208
l-268 200 0 642 0 643 280 -140 280 -140 0 -711z m-7130 826 c0 -3 -32 -68
-70 -145 l-70 -140 -376 0 -376 0 49 63 c27 34 77 99 112 145 l62 82 334 0
c184 0 335 -2 335 -5z m689 -12 c0 -10 -15 -74 -33 -143 l-33 -125 -371 -3
c-205 -1 -372 0 -372 3 0 3 32 68 70 145 l70 140 335 0 c313 0 335 -1 334 -17z
m698 -80 c-4 -54 -7 -119 -7 -145 l0 -48 -370 0 c-203 0 -370 3 -370 6 0 5 39
162 61 247 l10 37 341 0 341 0 -6 -97z m720 -38 c18 -71 33 -136 33 -142 0
-10 -81 -13 -370 -13 l-370 0 0 145 0 145 338 -2 337 -3 32 -130z m723 -5 c38
-77 70 -142 70 -145 0 -3 -166 -5 -370 -5 l-369 0 -10 38 c-22 84 -61 241 -61
246 0 3 151 6 335 6 l335 0 70 -140z m725 0 c58 -76 105 -142 105 -145 0 -3
-166 -5 -370 -5 l-370 0 -70 140 c-38 77 -70 142 -70 145 0 3 151 5 335 5
l334 0 106 -140z m-5955 -412 l0 -463 -197 -197 c-109 -109 -201 -198 -205
-198 -5 0 -8 229 -8 510 l0 510 198 149 c108 82 200 150 205 150 4 1 7 -207 7
-461z m7770 312 l200 -150 0 -510 c0 -281 -3 -510 -7 -510 -4 0 -97 89 -205
197 l-198 198 0 462 c0 255 2 463 5 463 3 0 95 -68 205 -150z m-9752 -602 l-3
-713 -255 -192 c-140 -106 -281 -211 -312 -234 l-58 -40 0 790 0 791 307 154
c170 85 311 155 316 155 4 1 6 -320 5 -711z m11842 557 l310 -155 0 -791 0
-790 -57 40 c-32 23 -173 128 -313 234 l-255 192 -3 713 c-1 391 0 712 3 712
3 0 145 -70 315 -155z m-7690 -185 l-80 -160 -416 0 c-329 0 -414 3 -408 13 5
6 58 80 120 162 l113 150 375 -3 376 -2 -80 -160z m808 0 l-40 -160 -415 0
c-327 0 -414 3 -411 13 2 6 37 80 79 162 l77 150 375 -3 374 -2 -39 -160z
m2412 10 c44 -88 80 -162 80 -165 0 -3 -186 -5 -414 -5 l-413 0 -37 150 c-20
82 -36 154 -36 160 0 6 126 11 368 13 202 1 368 3 369 5 2 1 39 -70 83 -158z
m785 28 c50 -67 103 -139 118 -160 l29 -38 -416 0 -416 0 -80 160 -80 160 368
2 c202 2 372 2 377 0 6 -2 51 -58 100 -124z m-2395 -38 l0 -160 -416 0 c-391
0 -415 1 -410 18 9 32 76 293 76 298 0 2 169 4 375 4 l375 0 0 -160z m779 123
c5 -21 22 -85 36 -143 14 -58 28 -113 31 -122 5 -17 -19 -18 -410 -18 l-416 0
0 160 0 160 375 0 374 0 10 -37z m-5201 -1313 l-223 -225 225 223 225 222 518
0 c284 0 517 -2 517 -5 0 -3 -74 -104 -165 -225 l-165 -220 -578 2 -577 3 -3
575 -2 575 222 167 223 167 3 -517 2 -517 -222 -225z m8885 1065 l187 -140 -2
-575 -3 -575 -572 -3 -573 -2 -165 220 c-91 121 -165 222 -165 225 0 3 231 5
512 5 l513 0 225 -222 225 -223 -222 225 -223 225 0 518 0 519 38 -29 c21 -15
123 -91 225 -168z m-7023 -51 c0 -4 -60 -87 -132 -185 l-133 -178 -462 -1
c-255 0 -463 4 -463 8 0 4 80 87 178 184 l177 177 418 1 c229 0 417 -3 417 -6z
m852 1 c3 -3 -36 -86 -86 -185 l-91 -180 -463 0 c-442 0 -463 1 -450 18 65 88
235 312 251 330 l20 22 407 0 c224 0 409 -2 412 -5z m858 -3 c0 -7 -34 -142
-81 -324 l-10 -38 -459 0 c-304 0 -460 3 -460 10 0 12 157 329 172 348 8 9
105 12 424 12 228 0 414 -4 414 -8z m850 -177 l0 -185 -460 0 c-313 0 -460 3
-460 10 0 11 77 323 85 348 3 9 96 12 420 12 l415 0 0 -185z m891 30 c20 -82
40 -165 44 -182 l7 -33 -461 0 -461 0 0 185 0 185 417 -2 417 -3 37 -150z
m899 -25 c49 -99 90 -182 90 -185 0 -3 -208 -4 -462 -3 l-462 3 -43 170 c-23
94 -43 176 -43 183 0 9 90 12 415 12 l415 0 90 -180z m888 8 c70 -95 131 -179
135 -185 7 -10 -86 -13 -452 -13 l-461 0 -90 180 c-49 99 -90 182 -90 185 0 3
187 5 415 5 l414 0 129 -172z m894 -6 c98 -97 178 -180 178 -184 0 -4 -204 -8
-454 -8 l-454 0 -131 175 c-72 96 -131 179 -131 185 0 7 133 10 407 10 l408
-1 177 -177z m-8489 -1337 l-248 -250 250 248 250 247 579 -2 578 -3 -187
-248 -188 -247 -641 2 -641 3 -3 640 -2 640 247 186 248 185 3 -575 2 -576
-247 -250z m10085 390 l-3 -640 -640 0 -639 0 -184 245 -183 245 573 3 573 2
250 -247 250 -248 -247 250 -248 250 0 578 0 577 250 -187 250 -188 -2 -640z
m-8014 733 c-4 -7 -73 -100 -153 -205 l-145 -193 -513 0 c-282 0 -513 3 -513
7 0 4 89 97 197 205 l198 198 468 0 c372 0 467 -3 461 -12z m854 -193 l-103
-205 -512 0 c-282 0 -513 2 -513 5 0 3 68 95 150 205 l150 200 465 0 465 0
-102 -205z m1041 183 c0 -13 -22 -104 -47 -203 l-47 -180 -518 -3 -517 -2 102
205 103 205 462 0 463 0 -1 -22z m951 -183 l0 -205 -515 0 c-283 0 -515 3
-515 8 0 4 23 94 50 201 28 107 50 196 50 197 0 2 209 4 465 4 l465 0 0 -205z
m993 13 c26 -106 47 -199 47 -206 0 -10 -106 -12 -512 -10 l-513 3 -1 195 c-1
107 0 198 3 203 2 4 212 7 466 7 l463 0 47 -192z m997 -8 c55 -110 100 -202
100 -205 0 -3 -232 -5 -515 -5 l-515 0 -5 23 c-16 70 -87 355 -91 370 -5 16
21 17 460 17 l466 0 100 -200z m993 1 c81 -109 147 -201 147 -204 0 -4 -229
-7 -510 -7 l-510 0 -100 200 c-55 110 -100 202 -100 205 0 3 208 5 463 5 l462
-1 148 -198z m989 2 c109 -109 198 -201 198 -205 0 -5 -229 -8 -508 -8 l-508
0 -147 199 c-81 110 -147 202 -147 205 0 3 206 6 457 6 l458 0 197 -197z
m-9434 -1480 c-150 -150 -276 -273 -280 -273 -5 0 -8 317 -8 705 l0 705 278
208 277 209 3 -641 2 -641 -272 -272z m11212 432 c0 -388 -3 -705 -7 -705 -5
0 -131 123 -280 272 l-273 273 0 643 0 642 280 -210 280 -210 0 -705z m-7962
600 l-113 -225 -573 0 c-475 0 -572 2 -565 13 4 8 80 109 168 225 l160 212
517 0 518 0 -112 -225z m1158 208 c-3 -10 -28 -111 -57 -225 l-51 -208 -574 0
-574 0 112 225 113 225 518 0 c489 0 518 -1 513 -17z m1054 -208 l0 -225 -576
0 c-457 0 -575 3 -572 13 3 6 29 108 59 224 l54 213 518 0 517 0 0 -225z
m1059 188 c6 -21 29 -114 51 -208 23 -93 44 -178 46 -187 5 -17 -27 -18 -570
-18 l-576 0 0 225 0 225 520 0 519 0 10 -37z m1144 -170 c57 -115 106 -216
110 -225 6 -17 -25 -18 -566 -18 l-572 0 -53 213 c-29 116 -52 218 -52 225 0
9 110 12 515 12 l516 0 102 -207z m1103 -5 c87 -117 162 -219 167 -225 8 -10
-107 -13 -564 -13 l-574 0 -105 216 c-58 119 -106 220 -108 225 -2 5 215 9
511 9 l515 0 158 -212z m-9373 -1650 c-170 -170 -311 -308 -315 -308 -5 0 -8
353 -8 785 l0 785 313 234 312 235 3 -712 2 -712 -307 -307z m12155 1488 l302
-226 0 -785 c0 -432 -3 -785 -7 -785 -5 0 -146 138 -315 307 l-308 308 0 714
c0 569 3 711 13 704 6 -6 148 -112 315 -237z m-8428 -102 c0 -7 -240 -476
-249 -487 -4 -4 -292 -6 -640 -5 l-632 3 185 248 186 247 575 0 c316 0 575 -3
575 -6z m1166 -16 c-3 -13 -32 -125 -63 -250 l-58 -228 -637 0 c-351 0 -638 3
-638 6 0 6 231 461 247 487 2 4 263 7 580 7 l575 0 -6 -22z m1174 -228 l0
-250 -641 0 c-509 0 -640 3 -637 13 3 6 31 119 64 250 l59 237 577 0 578 0 0
-250z m1224 13 c33 -131 61 -244 64 -250 3 -10 -128 -13 -637 -13 l-641 0 0
250 0 250 578 0 577 0 59 -237z m1231 -13 l125 -250 -639 0 -639 0 -57 238
c-32 130 -60 243 -63 250 -3 9 115 12 572 12 l576 0 125 -250z m1205 33 c90
-120 174 -233 188 -250 l24 -33 -638 0 -639 0 -123 245 c-67 135 -122 247
-122 250 0 3 258 5 574 5 l574 0 162 -217z m-7590 -345 c-16 -24 -110 -149
-208 -278 l-177 -235 -707 -3 c-390 -1 -708 1 -708 5 0 4 123 131 272 280
l273 273 643 0 643 0 -31 -42z m1190 -238 l-140 -280 -711 0 c-568 0 -709 3
-702 13 6 6 59 77 118 157 60 80 151 200 202 268 l94 122 640 0 639 0 -140
-280z m1436 263 c-11 -39 -136 -531 -136 -537 0 -3 -319 -6 -710 -6 -390 0
-710 2 -710 5 0 3 62 129 137 280 l138 275 643 0 c608 0 643 -1 638 -17z
m1302 -260 l-3 -278 -714 -3 c-652 -2 -713 -1 -707 14 3 9 36 135 73 280 l66
264 644 0 643 0 -2 -277z m1360 19 c34 -141 65 -267 68 -279 l6 -23 -711 0
-711 0 0 280 0 280 643 0 642 0 63 -258z m1367 -12 c74 -148 135 -274 135
-280 0 -7 -234 -9 -707 -8 l-707 3 -68 270 c-37 149 -68 273 -68 278 0 4 288
7 640 7 l640 0 135 -270z m1369 -5 c113 -151 206 -277 206 -280 0 -3 -318 -5
-708 -5 l-707 0 -138 275 c-75 151 -137 277 -137 280 0 3 287 5 639 5 l639 0
206 -275z m1363 3 c150 -150 273 -276 273 -280 0 -5 -317 -8 -704 -8 l-704 0
-199 268 c-110 147 -203 273 -207 280 -6 9 123 12 631 12 l638 0 272 -272z
m-9794 -310 c-6 -7 -112 -149 -237 -315 l-226 -303 -785 0 c-432 0 -785 3
-785 7 0 5 138 146 307 315 l308 308 714 0 c569 0 711 -3 704 -12z m1447 7 c0
-3 -70 -145 -155 -315 l-155 -310 -791 0 c-629 0 -789 3 -783 12 4 7 111 149
236 316 l229 302 709 0 c391 0 710 -2 710 -5z m1440 -7 c0 -15 -149 -599 -156
-610 -3 -4 -358 -8 -790 -8 -744 0 -785 1 -779 18 3 9 73 151 156 315 l149
297 710 0 c536 0 710 -3 710 -12z m1441 8 c2 -2 3 -144 1 -315 l-3 -311 -790
0 c-748 0 -790 1 -785 18 3 9 35 136 71 282 37 146 71 280 76 298 l11 32 707
0 c389 0 710 -2 712 -4z m1519 -298 c40 -167 75 -309 78 -316 3 -9 -158 -12
-787 -12 l-791 0 0 315 0 315 713 0 713 0 74 -302z m1518 -3 c83 -168 152
-310 152 -315 0 -7 -267 -9 -787 -8 l-788 3 -77 305 c-42 168 -77 308 -78 313
0 4 321 7 713 7 l712 0 153 -305z m1512 3 c124 -165 229 -307 233 -314 7 -12
-115 -14 -782 -12 l-789 3 -156 313 -156 312 713 0 712 -1 225 -301z m1522 -5
c170 -170 308 -311 308 -316 0 -4 -354 -6 -787 -5 l-786 3 -233 313 -233 312
712 0 712 0 307 -307z"/>
</g>
</svg>
